{
.appVersion = "3236";
.formatVersion = 3;
customParameters = (
{
name = panose;
value = (
0,
0,
0,
0,
0,
0,
0,
0,
0,
0
);
},
{
name = unicodeRanges;
value = (
0,
1
);
},
{
name = blueScale;
value = 0.0370000004768;
},
{
name = blueShift;
value = 4;
},
{
name = glyphOrder;
value = (
.notdef,
space,
A,
B,
C,
D,
E,
F,
G,
H,
I,
J,
K,
L,
M,
N,
O,
P,
Q,
R,
S,
T,
U,
V,
W,
X,
Y,
Z,
a,
b,
c,
d,
e,
f,
g,
h,
i,
j,
k,
l,
m,
n,
o,
p,
q,
r,
s,
t,
u,
v,
w,
x,
y,
z,
zero,
one,
two,
three,
four,
five,
six,
seven,
eight,
nine,
period,
comma,
hyphen
);
}
);
date = "2024-02-05 21:25:19 +0000";
familyName = Typeople;
featurePrefixes = (
{
automatic = 1;
code = "languagesystem DFLT dflt;
";
name = Languagesystems;
}
);
fontMaster = (
{
customParameters = (
{
name = typoAscender;
value = 550;
},
{
name = typoDescender;
value = 0;
},
{
name = typoLineGap;
value = 100;
},
{
name = winAscent;
value = 550;
},
{
name = winDescent;
value = 0;
},
{
name = hheaAscender;
value = 550;
},
{
name = hheaDescender;
value = 0;
},
{
name = strikeoutPosition;
value = 100;
},
{
name = strikeoutSize;
value = 0;
},
{
name = underlinePosition;
value = 0;
},
{
name = underlineThickness;
value = 50;
}
);
id = m01;
metricValues = (
{
pos = 550;
},
{
pos = 400;
},
{
pos = 200;
},
{
},
{
},
{
}
);
name = Syms;
}
);
glyphs = (
{
glyphname = .notdef;
layers = (
{
hints = (
{
horizontal = 1;
place = (373,27);
type = Stem;
},
{
horizontal = 1;
place = (345,15);
type = Stem;
},
{
horizontal = 1;
place = (322,10);
type = Stem;
},
{
horizontal = 1;
place = (294,14);
type = Stem;
},
{
horizontal = 1;
place = (269,11);
type = Stem;
},
{
horizontal = 1;
place = (245,11);
type = Stem;
},
{
horizontal = 1;
place = (241,15);
type = Stem;
},
{
horizontal = 1;
place = (219,9);
type = Stem;
},
{
horizontal = 1;
place = (196,9);
type = Stem;
},
{
horizontal = 1;
place = (164,10);
type = Stem;
},
{
horizontal = 1;
place = (127,24);
type = Stem;
},
{
horizontal = 1;
place = (95,19);
type = Stem;
},
{
horizontal = 1;
place = (73,9);
type = Stem;
},
{
horizontal = 1;
place = (41,19);
type = Stem;
},
{
horizontal = 1;
place = (0,28);
type = Stem;
},
{
place = (133,31);
type = Stem;
},
{
place = (107,13);
type = Stem;
},
{
place = (80,84);
type = Stem;
},
{
place = (80,13);
type = Stem;
},
{
place = (37,83);
type = Stem;
},
{
place = (37,56);
type = Stem;
},
{
place = (37,30);
type = Stem;
}
);
layerId = m01;
shapes = (
{
closed = 1;
nodes = (
(164,400,l),
(37,400,l),
(37,0,l),
(164,0,l)
);
},
{
closed = 1;
nodes = (
(133,127,l),
(133,82,l),
(67,82,l),
(67,127,l)
);
},
{
closed = 1;
nodes = (
(120,114,l),
(80,114,l),
(80,95,l),
(120,95,l)
);
},
{
closed = 1;
nodes = (
(133,196,l),
(133,151,l),
(67,151,l),
(67,196,l),
(80,196,l),
(80,164,l),
(120,164,l),
(120,183,l),
(107,183,l),
(107,174,l),
(93,174,l),
(93,196,l)
);
},
{
closed = 1;
nodes = (
(133,245,l),
(133,205,l),
(67,205,l),
(67,219,l),
(120,219,l),
(120,245,l)
);
},
{
closed = 1;
nodes = (
(133,269,l),
(133,256,l),
(107,256,l),
(107,228,l),
(67,228,l),
(67,241,l),
(93,241,l),
(93,256,l),
(67,256,l),
(67,269,l)
);
},
{
closed = 1;
nodes = (
(93,308,l),
(80,308,l),
(80,294,l),
(93,294,l)
);
},
{
closed = 1;
nodes = (
(107,322,l),
(107,294,l),
(133,294,l),
(133,280,l),
(67,280,l),
(67,322,l)
);
},
{
closed = 1;
nodes = (
(133,373,l),
(133,360,l),
(107,360,l),
(107,345,l),
(133,345,l),
(133,332,l),
(67,332,l),
(67,345,l),
(93,345,l),
(93,360,l),
(67,360,l),
(67,373,l)
);
},
{
closed = 1;
nodes = (
(133,73,l),
(133,60,l),
(120,60,l),
(92,41,l),
(133,41,l),
(133,28,l),
(67,28,l),
(67,41,l),
(95,60,l),
(67,60,l),
(67,73,l)
);
}
);
width = 200;
}
);
note = .notdef;
},
{
glyphname = A;
lastChange = "2024-02-06 15:43:18 +0000";
layers = (
{
hints = (
{
horizontal = 1;
place = (488,44);
type = Stem;
},
{
horizontal = 1;
place = (488,23);
type = Stem;
},
{
horizontal = 1;
place = (443,47);
type = Stem;
},
{
horizontal = 1;
place = (443,21);
type = Stem;
},
{
horizontal = 1;
place = (422,43);
type = Stem;
},
{
horizontal = 1;
place = (399,20);
type = Stem;
},
{
place = (47,27);
type = Stem;
},
{
place = (37,13);
type = Stem;
},
{
place = (17,21);
type = Stem;
},
{
place = (5,26);
type = Stem;
},
{
place = (-31,61);
type = Stem;
},
{
place = (-31,25);
type = Stem;
},
{
place = (-40,21);
type = Stem;
},
{
place = (-52,47);
type = Stem;
},
{
place = (-52,33);
type = Stem;
},
{
place = (-73,25);
type = Stem;
}
);
layerId = m01;
shapes = (
{
closed = 1;
nodes = (
(-31,400,l),
(31,400,l),
(31,423,l),
(51,423,l),
(51,444,l),
(73,444,l),
(73,490,l),
(51,490,l),
(51,512,l),
(31,512,l),
(31,533,l),
(-31,533,l),
(-31,512,l),
(-52,512,l),
(-52,490,l),
(-73,490,l),
(-73,444,l),
(-52,444,l),
(-52,423,l),
(-31,423,l)
);
},
{
closed = 1;
nodes = (
(-43,468,o),
(-47,472,o),
(-48,476,c),
(-45,484,o),
(-39,489,o),
(-29,489,cs),
(-21,489,o),
(-13,484,o),
(-12,476,c),
(-13,472,o),
(-16,468,o),
(-21,465,c),
(-20,467,o),
(-19,469,o),
(-19,472,cs),
(-19,477,o),
(-24,482,o),
(-29,482,cs),
(-36,482,o),
(-40,477,o),
(-40,472,cs),
(-40,469,o),
(-40,467,o),
(-39,465,c)
);
},
{
closed = 1;
nodes = (
(-11,420,l),
(0,478,l),
(9,420,l)
);
},
{
closed = 1;
nodes = (
(15,468,o),
(12,472,o),
(11,476,c),
(12,484,o),
(20,489,o),
(28,489,cs),
(37,489,o),
(44,484,o),
(47,476,c),
(45,472,o),
(41,468,o),
(37,465,c),
(39,467,o),
(39,469,o),
(39,472,cs),
(39,477,o),
(35,482,o),
(28,482,cs),
(23,482,o),
(17,477,o),
(17,472,cs),
(17,469,o),
(19,467,o),
(20,465,c)
);
}
);
width = 0;
}
);
note = A;
unicode = 65;
},
{
glyphname = B;
lastChange = "2024-02-06 15:43:30 +0000";
layers = (
{
hints = (
{
horizontal = 1;
place = (297,103);
type = Stem;
},
{
horizontal = 1;
place = (238,161);
type = Stem;
},
{
horizontal = 1;
place = (238,138);
type = Stem;
},
{
horizontal = 1;
place = (200,27);
type = Stem;
},
{
place = (92,37);
type = Stem;
},
{
place = (31,99);
type = Stem;
},
{
place = (31,61);
type = Stem;
},
{
place = (-41,83);
type = Stem;
},
{
place = (-92,61);
type = Stem;
},
{
place = (-130,100);
type = Stem;
},
{
place = (-130,39);
type = Stem;
}
);
layerId = m01;
shapes = (
{
closed = 1;
nodes = (
(129,400,l),
(31,400,l),
(31,377,l),
(-30,377,l),
(-30,400,l),
(-130,400,l),
(-130,297,l),
(-92,297,l),
(-92,239,l),
(-41,239,l),
(-41,200,l),
(41,200,l),
(41,239,l),
(92,239,l),
(92,297,l),
(129,297,l)
);
},
{
closed = 1;
nodes = (
(-130,227,l),
(-130,200,l),
(-92,200,l),
(-92,227,l)
);
},
{
closed = 1;
nodes = (
(92,227,l),
(92,200,l),
(129,200,l),
(129,227,l)
);
}
);
width = 0;
}
);
note = B;
unicode = 66;
},
{
glyphname = C;
lastChange = "2024-02-06 15:43:38 +0000";
layers = (
{
hints = (
{
horizontal = 1;
place = (152,48);
type = Stem;
},
{
horizontal = 1;
place = (105,47);
type = Stem;
},
{
horizontal = 1;
place = (0,105);
type = Stem;
},
{
horizontal = 1;
place = (0,39);
type = Stem;
},
{
place = (41,44);
type = Stem;
},
{
place = (24,61);
type = Stem;
},
{
place = (-85,61);
type = Stem;
},
{
place = (-85,44);
type = Stem;
}
);
layerId = m01;
shapes = (
{
closed = 1;
nodes = (
(-24,200,l),
(-85,200,l),
(-85,152,l),
(-102,152,l),
(-102,105,l),
(-85,105,l),
(-85,39,l),
(-118,39,l),
(-118,0,l),
(-24,0,l),
(-24,105,l),
(-41,105,l),
(-41,152,l),
(-24,152,l)
);
},
{
closed = 1;
nodes = (
(85,200,l),
(24,200,l),
(24,152,l),
(41,152,l),
(41,105,l),
(24,105,l),
(24,0,l),
(118,0,l),
(118,39,l),
(85,39,l),
(85,105,l),
(102,105,l),
(102,152,l),
(85,152,l)
);
}
);
width = 0;
}
);
note = C;
unicode = 67;
},
{
glyphname = D;
lastChange = "2024-02-06 15:43:50 +0000";
layers = (
{
hints = (
{
horizontal = 1;
place = (473,11);
type = Stem;
},
{
horizontal = 1;
place = (438,47);
type = Stem;
},
{
horizontal = 1;
place = (408,11);
type = Stem;
},
{
place = (69,12);
type = Stem;
},
{
place = (45,9);
type = Stem;
},
{
place = (17,9);
type = Stem;
},
{
place = (8,19);
type = Stem;
},
{
place = (-28,20);
type = Stem;
},
{
place = (-28,11);
type = Stem;
},
{
place = (-56,9);
type = Stem;
},
{
place = (-81,13);
type = Stem;
},
{
place = (-81,11);
type = Stem;
}
);
layerId = m01;
shapes = (
{
closed = 1;
nodes = (
(12,400,o),
(24,404,o),
(35,409,c),
(81,409,l),
(81,420,l),
(52,420,l),
(55,423,l),
(81,423,l),
(81,433,l),
(64,433,l),
(74,447,o),
(81,464,o),
(81,482,cs),
(81,485,l),
(53,533,l),
(25,485,l),
(-27,485,l),
(-55,533,l),
(-81,485,l),
(-81,482,ls),
(-81,464,o),
(-76,447,o),
(-65,433,c),
(-81,433,l),
(-81,423,l),
(-56,423,l),
(-55,421,o),
(-53,421,o),
(-52,420,c),
(-81,420,l),
(-81,409,l),
(-36,409,l),
(-25,404,o),
(-13,400,o),
(0,400,cs)
);
},
{
closed = 1;
nodes = (
(-56,443,o),
(-65,449,o),
(-70,457,c),
(-65,465,o),
(-56,472,o),
(-47,474,c),
(-52,470,o),
(-56,464,o),
(-56,457,cs),
(-56,449,o),
(-52,444,o),
(-47,440,c)
);
},
{
closed = 1;
nodes = (
(-40,448,o),
(-43,452,o),
(-43,457,cs),
(-43,463,o),
(-40,467,o),
(-37,469,c),
(-35,467,o),
(-32,463,o),
(-32,457,cs),
(-32,452,o),
(-35,448,o),
(-37,444,c)
);
},
{
closed = 1;
nodes = (
(-5,424,o),
(-8,428,o),
(-8,432,cs),
(-8,439,l),
(8,439,l),
(8,432,ls),
(8,428,o),
(4,424,o),
(0,424,cs)
);
},
{
closed = 1;
nodes = (
(-21,444,o),
(-17,449,o),
(-17,457,cs),
(-17,464,o),
(-21,470,o),
(-28,474,c),
(-19,472,o),
(-9,465,o),
(-4,457,c),
(-9,449,o),
(-19,443,o),
(-28,440,c)
);
},
{
closed = 1;
nodes = (
(-68,485,l),
(-55,509,l),
(-41,485,l)
);
},
{
closed = 1;
nodes = (
(17,443,o),
(8,449,o),
(3,457,c),
(8,465,o),
(17,472,o),
(27,474,c),
(21,470,o),
(17,464,o),
(17,457,cs),
(17,449,o),
(21,444,o),
(27,440,c)
);
},
{
closed = 1;
nodes = (
(33,448,o),
(31,452,o),
(31,457,cs),
(31,463,o),
(33,467,o),
(36,469,c),
(39,467,o),
(41,463,o),
(41,457,cs),
(41,452,o),
(39,448,o),
(36,444,c)
);
},
{
closed = 1;
nodes = (
(51,444,o),
(55,449,o),
(55,457,cs),
(55,464,o),
(51,470,o),
(45,474,c),
(55,472,o),
(64,465,o),
(69,457,c),
(64,449,o),
(55,443,o),
(45,440,c)
);
},
{
closed = 1;
nodes = (
(40,485,l),
(53,509,l),
(67,485,l)
);
}
);
width = 0;
}
);
note = D;
unicode = 68;
},
{
glyphname = E;
lastChange = "2024-02-06 15:45:20 +0000";
layers = (
{
hints = (
{
horizontal = 1;
place = (199,199);
type = Stem;
},
{
horizontal = 1;
place = (199,178);
type = Stem;
},
{
horizontal = 1;
place = (199,142);
type = Stem;
},
{
place = (117,10);
type = Stem;
},
{
place = (97,10);
type = Stem;
},
{
place = (77,10);
type = Stem;
},
{
place = (56,12);
type = Stem;
},
{
place = (-44,90);
type = Stem;
},
{
place = (-67,12);
type = Stem;
},
{
place = (-87,10);
type = Stem;
},
{
place = (-107,10);
type = Stem;
},
{
place = (-127,10);
type = Stem;
}
);
layerId = m01;
shapes = (
{
closed = 1;
nodes = (
(45,200,l),
(45,278,l),
(93,297,o),
(127,344,o),
(127,400,c),
(116,400,l),
(116,378,l),
(107,378,l),
(107,400,l),
(96,400,l),
(96,378,l),
(87,378,l),
(87,400,l),
(76,400,l),
(76,378,l),
(67,378,l),
(67,400,l),
(55,400,l),
(55,369,o),
(32,345,o),
(4,342,cs),
(-5,342,ls),
(-33,345,o),
(-56,369,o),
(-56,400,c),
(-68,400,l),
(-68,378,l),
(-77,378,l),
(-77,400,l),
(-88,400,l),
(-88,378,l),
(-97,378,l),
(-97,400,l),
(-108,400,l),
(-108,378,l),
(-117,378,l),
(-117,400,l),
(-128,400,l),
(-128,344,o),
(-94,297,o),
(-45,278,c),
(-45,200,l)
);
}
);
width = 0;
}
);
note = E;
unicode = 69;
},
{
glyphname = F;
lastChange = "2024-02-06 15:45:28 +0000";
layers = (
{
hints = (
{
horizontal = 1;
place = (148,52);
type = Stem;
},
{
horizontal = 1;
place = (0,21);
type = Stem;
},
{
place = (68,40);
type = Stem;
},
{
place = (36,37);
type = Stem;
},
{
place = (8,100);
type = Stem;
},
{
place = (8,41);
type = Stem;
},
{
place = (-50,43);
type = Stem;
},
{
place = (-74,148);
type = Stem;
},
{
place = (-74,39);
type = Stem;
},
{
place = (-109,101);
type = Stem;
},
{
place = (-109,41);
type = Stem;
}
);
layerId = m01;
shapes = (
{
closed = 1;
nodes = (
(-109,0,l),
(-8,0,l),
(-8,21,l),
(-20,21,l),
(0,101,l),
(20,21,l),
(8,21,l),
(8,0,l),
(108,0,l),
(108,21,l),
(93,21,l),
(61,148,l),
(73,148,l),
(73,200,l),
(-74,200,l),
(-74,148,l),
(-61,148,l),
(-93,21,l),
(-109,21,l)
);
},
{
closed = 1;
nodes = (
(-68,21,l),
(-36,148,l),
(-17,148,l),
(-50,21,l)
);
},
{
closed = 1;
nodes = (
(49,21,l),
(17,148,l),
(36,148,l),
(68,21,l)
);
}
);
width = 0;
}
);
note = F;
unicode = 70;
},
{
glyphname = G;
lastChange = "2024-02-06 15:45:39 +0000";
layers = (
{
hints = (
{
horizontal = 1;
place = (515,17);
type = Stem;
},
{
horizontal = 1;
place = (469,29);
type = Stem;
},
{
horizontal = 1;
place = (466,33);
type = Stem;
},
{
horizontal = 1;
place = (464,35);
type = Stem;
},
{
horizontal = 1;
place = (438,24);
type = Stem;
},
{
horizontal = 1;
place = (399,45);
type = Stem;
},
{
horizontal = 1;
place = (399,24);
type = Stem;
},
{
place = (49,17);
type = Stem;
},
{
place = (24,12);
type = Stem;
},
{
place = (-12,19);
type = Stem;
},
{
place = (-12,12);
type = Stem;
},
{
place = (-37,19);
type = Stem;
},
{
place = (-37,12);
type = Stem;
},
{
place = (-67,17);
type = Stem;
}
);
layerId = m01;
shapes = (
{
closed = 1;
nodes = (
(-50,467,l),
(-50,493,o),
(-29,516,o),
(-1,516,cs),
(26,516,o),
(48,493,o),
(48,467,c),
(66,467,l),
(66,502,o),
(35,533,o),
(-1,533,cs),
(-38,533,o),
(-67,502,o),
(-67,467,c)
);
},
{
closed = 1;
nodes = (
(-26,424,l),
(-26,439,l),
(23,439,l),
(23,424,l)
);
},
{
closed = 1;
nodes = (
(-20,400,l),
(18,400,l),
(35,436,l),
(35,464,ls),
(35,484,o),
(19,500,o),
(-1,500,cs),
(-21,500,o),
(-38,484,o),
(-38,464,cs),
(-38,436,l)
);
},
{
closed = 1;
nodes = (
(-13,445,l),
(-1,465,l),
(10,445,l)
);
},
{
closed = 1;
nodes = (
(-16,464,o),
(-17,464,o),
(-18,465,cs),
(-20,467,o),
(-20,467,o),
(-20,468,c),
(-21,469,o),
(-21,472,o),
(-20,473,cs),
(-17,476,l),
(-16,476,o),
(-14,477,o),
(-13,477,c),
(-13,470,l),
(-6,470,l),
(-6,468,o),
(-6,467,o),
(-8,467,c),
(-8,465,o),
(-9,464,o),
(-10,464,c),
(-12,463,o),
(-13,463,o),
(-14,463,c)
);
},
{
closed = 1;
nodes = (
(7,464,o),
(6,464,o),
(6,465,c),
(4,467,o),
(3,467,o),
(3,468,cs),
(3,469,o),
(3,472,o),
(4,473,c),
(4,473,o),
(6,474,o),
(6,476,c),
(7,476,o),
(8,477,o),
(10,477,c),
(10,470,l),
(18,470,l),
(18,468,o),
(16,467,o),
(16,467,c),
(15,465,o),
(14,464,o),
(12,464,c),
(11,463,o),
(10,463,o),
(8,463,c)
);
}
);
width = 0;
}
);
note = G;
unicode = 71;
},
{
glyphname = H;
lastChange = "2024-02-06 15:45:48 +0000";
layers = (
{
hints = (
{
horizontal = 1;
place = (348,18);
type = Stem;
},
{
horizontal = 1;
place = (245,154);
type = Stem;
},
{
horizontal = 1;
place = (233,98);
type = Stem;
},
{
horizontal = 1;
place = (199,199);
type = Stem;
},
{
horizontal = 1;
place = (199,32);
type = Stem;
},
{
horizontal = 1;
place = (199,16);
type = Stem;
},
{
place = (86,41);
type = Stem;
},
{
place = (38,37);
type = Stem;
},
{
place = (33,42);
type = Stem;
},
{
place = (-75,42);
type = Stem;
},
{
place = (-75,21);
type = Stem;
},
{
place = (-127,41);
type = Stem;
}
);
layerId = m01;
shapes = (
{
closed = 1;
nodes = (
(-76,200,l),
(75,200,l),
(75,400,l),
(32,400,l),
(32,381,o),
(17,368,o),
(0,368,cs),
(-1,368,ls),
(-18,368,o),
(-33,381,o),
(-33,400,c),
(-76,400,l)
);
},
{
closed = 1;
nodes = (
(-96,200,o),
(-86,209,o),
(-86,220,cs),
(-86,232,l),
(-128,232,l),
(-128,220,ls),
(-128,209,o),
(-118,200,o),
(-108,200,cs)
);
},
{
closed = 1;
nodes = (
(-128,245,l),
(-86,245,l),
(-86,378,ls),
(-86,389,o),
(-96,400,o),
(-108,400,cs),
(-118,400,o),
(-128,389,o),
(-128,378,cs)
);
},
{
closed = 1;
nodes = (
(-24,216,o),
(-54,245,o),
(-54,282,cs),
(-54,318,o),
(-24,349,o),
(12,349,cs),
(21,349,o),
(29,346,o),
(37,344,c),
(37,324,l),
(29,329,o),
(21,332,o),
(12,332,cs),
(-14,332,o),
(-37,309,o),
(-37,282,cs),
(-37,255,o),
(-14,233,o),
(12,233,cs),
(21,233,o),
(29,235,o),
(37,240,c),
(37,220,l),
(29,217,o),
(21,216,o),
(12,216,cs)
);
},
{
closed = 1;
nodes = (
(117,200,o),
(127,209,o),
(127,220,cs),
(127,232,l),
(85,232,l),
(85,220,ls),
(85,209,o),
(95,200,o),
(107,200,cs)
);
},
{
closed = 1;
nodes = (
(85,245,l),
(127,245,l),
(127,378,ls),
(127,389,o),
(117,400,o),
(107,400,cs),
(95,400,o),
(85,389,o),
(85,378,cs)
);
}
);
width = 0;
}
);
note = H;
unicode = 72;
},
{
glyphname = I;
lastChange = "2024-02-06 15:45:55 +0000";
layers = (
{
hints = (
{
horizontal = 1;
place = (0,78);
type = Stem;
},
{
horizontal = 1;
place = (0,50);
type = Stem;
},
{
place = (44,60);
type = Stem;
},
{
place = (26,25);
type = Stem;
},
{
place = (26,9);
type = Stem;
},
{
place = (9,9);
type = Stem;
},
{
place = (-17,9);
type = Stem;
},
{
place = (-51,9);
type = Stem;
}
);
layerId = m01;
shapes = (
{
closed = 1;
nodes = (
(8,0,l),
(21,0,l),
(21,9,l),
(37,9,l),
(37,0,l),
(103,0,l),
(103,21,ls),
(103,37,o),
(89,51,o),
(73,51,cs),
(64,51,o),
(56,47,o),
(51,39,c),
(51,200,l),
(43,200,l),
(43,78,l),
(35,78,l),
(35,200,l),
(25,200,l),
(25,78,l),
(17,78,l),
(17,200,l),
(8,200,l)
);
},
{
closed = 1;
nodes = (
(-104,0,l),
(-38,0,l),
(-38,9,l),
(-22,9,l),
(-22,0,l),
(-9,0,l),
(-9,200,l),
(-18,200,l),
(-18,78,l),
(-26,78,l),
(-26,200,l),
(-34,200,l),
(-34,78,l),
(-42,78,l),
(-42,200,l),
(-52,200,l),
(-52,39,l),
(-57,47,o),
(-65,51,o),
(-74,51,cs),
(-90,51,o),
(-104,37,o),
(-104,21,cs)
);
}
);
width = 0;
}
);
note = I;
unicode = 73;
},
{
glyphname = J;
lastChange = "2024-02-06 15:46:04 +0000";
layers = (
{
hints = (
{
horizontal = 1;
place = (479,22);
type = Stem;
},
{
horizontal = 1;
place = (449,22);
type = Stem;
},
{
horizontal = 1;
place = (429,26);
type = Stem;
},
{
horizontal = 1;
place = (399,38);
type = Stem;
},
{
place = (37,29);
type = Stem;
},
{
place = (36,30);
type = Stem;
},
{
place = (17,49);
type = Stem;
},
{
place = (-29,20);
type = Stem;
},
{
place = (-29,18);
type = Stem;
},
{
place = (-35,38);
type = Stem;
},
{
place = (-35,25);
type = Stem;
},
{
place = (-65,49);
type = Stem;
},
{
place = (-65,30);
type = Stem;
}
);
layerId = m01;
shapes = (
{
closed = 1;
nodes = (
(-13,403,o),
(-17,408,o),
(-17,415,cs),
(-17,424,o),
(-9,431,o),
(-1,431,cs),
(8,431,o),
(16,424,o),
(16,415,cs),
(16,408,o),
(12,403,o),
(7,400,c),
(37,404,o),
(63,428,o),
(65,459,c),
(63,455,o),
(57,451,o),
(51,451,cs),
(43,451,o),
(36,457,o),
(35,465,c),
(33,463,o),
(31,459,o),
(28,457,c),
(28,459,o),
(29,461,o),
(29,464,cs),
(29,469,o),
(25,473,o),
(20,473,cs),
(15,473,o),
(9,469,o),
(9,464,cs),
(9,461,o),
(11,459,o),
(12,457,c),
(8,459,o),
(4,463,o),
(3,468,c),
(5,474,o),
(12,480,o),
(20,480,cs),
(27,480,o),
(33,476,o),
(36,469,c),
(36,477,o),
(43,482,o),
(51,482,cs),
(57,482,o),
(63,478,o),
(65,473,c),
(63,505,o),
(37,529,o),
(7,533,c),
(12,530,o),
(16,525,o),
(16,518,cs),
(16,509,o),
(8,502,o),
(-1,502,cs),
(-9,502,o),
(-17,509,o),
(-17,518,cs),
(-17,525,o),
(-13,530,o),
(-8,533,c),
(-38,529,o),
(-64,505,o),
(-66,474,c),
(-64,478,o),
(-58,482,o),
(-52,482,cs),
(-44,482,o),
(-37,477,o),
(-36,469,c),
(-33,474,o),
(-28,480,o),
(-20,480,cs),
(-13,480,o),
(-6,474,o),
(-4,468,c),
(-5,463,o),
(-8,460,o),
(-12,457,c),
(-12,459,o),
(-10,461,o),
(-10,464,cs),
(-10,469,o),
(-14,473,o),
(-20,473,cs),
(-25,473,o),
(-30,469,o),
(-30,464,cs),
(-30,461,o),
(-29,459,o),
(-28,457,c),
(-32,459,o),
(-34,463,o),
(-36,467,c),
(-36,457,o),
(-44,451,o),
(-52,451,cs),
(-58,451,o),
(-64,453,o),
(-66,459,c),
(-64,428,o),
(-38,404,o),
(-8,400,c)
);
},
{
closed = 1;
nodes = (
(-1,439,ls),
(-6,439,o),
(-12,444,o),
(-12,451,c),
(11,451,l),
(11,444,o),
(5,439,o),
(0,439,cs)
);
}
);
width = 0;
}
);
note = J;
unicode = 74;
},
{
glyphname = K;
lastChange = "2024-02-06 15:46:16 +0000";
layers = (
{
hints = (
{
horizontal = 1;
place = (200,200);
type = Stem;
},
{
horizontal = 1;
place = (200,134);
type = Stem;
},
{
place = (33,15);
type = Stem;
},
{
place = (-49,15);
type = Stem;
}
);
layerId = m01;
shapes = (
{
closed = 1;
nodes = (
(-80,200,l),
(80,200,l),
(48,400,l),
(33,400,l),
(33,334,l),
(0,398,l),
(-35,334,l),
(-35,400,l),
(-49,400,l)
);
},
{
closed = 1;
nodes = (
(-8,334,o),
(-15,340,o),
(-15,348,cs),
(-15,356,o),
(-8,361,o),
(0,361,cs),
(7,361,o),
(13,356,o),
(13,348,cs),
(13,340,o),
(7,334,o),
(0,334,cs)
);
}
);
width = 0;
}
);
note = K;
unicode = 75;
},
{
glyphname = L;
lastChange = "2024-02-06 15:46:23 +0000";
layers = (
{
hints = (
{
horizontal = 1;
place = (109,90);
type = Stem;
},
{
horizontal = 1;
place = (29,60);
type = Stem;
},
{
horizontal = 1;
place = (0,89);
type = Stem;
},
{
place = (43,55);
type = Stem;
},
{
place = (19,28);
type = Stem;
},
{
place = (7,17);
type = Stem;
},
{
place = (-25,17);
type = Stem;
},
{
place = (-47,27);
type = Stem;
},
{
place = (-97,55);
type = Stem;
}
);
layerId = m01;
shapes = (
{
closed = 1;
nodes = (
(7,0,l),
(24,0,l),
(24,29,l),
(43,29,l),
(43,0,l),
(97,0,l),
(97,51,ls),
(97,77,o),
(76,100,o),
(49,100,c),
(45,96,ls),
(37,86,o),
(21,88,o),
(16,100,c),
(7,100,l)
);
},
{
closed = 1;
nodes = (
(-97,0,l),
(-43,0,l),
(-43,29,l),
(-25,29,l),
(-25,0,l),
(-8,0,l),
(-8,100,l),
(-17,100,l),
(-23,88,o),
(-39,86,o),
(-47,96,cs),
(-49,100,l),
(-76,100,o),
(-97,77,o),
(-97,51,cs)
);
},
{
closed = 1;
nodes = (
(-47,109,l),
(-20,109,l),
(-20,200,l),
(-47,200,l)
);
},
{
closed = 1;
nodes = (
(19,109,l),
(47,109,l),
(47,200,l),
(19,200,l)
);
}
);
width = 0;
}
);
note = L;
unicode = 76;
},
{
glyphname = M;
lastChange = "2024-02-06 15:48:57 +0000";
layers = (
{
hints = (
{
horizontal = 1;
place = (463,68);
type = Stem;
},
{
horizontal = 1;
place = (428,102);
type = Stem;
},
{
horizontal = 1;
place = (399,33);
type = Stem;
},
{
horizontal = 1;
place = (399,10);
type = Stem;
},
{
place = (5,32);
type = Stem;
},
{
place = (-12,25);
type = Stem;
},
{
place = (-35,30);
type = Stem;
},
{
place = (-35,20);
type = Stem;
}
);
layerId = m01;
shapes = (
{
closed = 1;
nodes = (
(44,400,ls),
(60,400,o),
(71,416,o),
(64,431,cs),
(17,520,ls),
(9,536,o),
(-12,536,o),
(-20,520,cs),
(-65,431,ls),
(-72,416,o),
(-61,400,o),
(-45,400,cs)
);
},
{
closed = 1;
nodes = (
(-20,412,o),
(-16,417,o),
(-16,423,cs),
(-16,429,o),
(-20,433,o),
(-25,433,cs),
(-32,433,o),
(-36,429,o),
(-36,423,cs),
(-36,417,o),
(-32,412,o),
(-25,412,cs)
);
},
{
closed = 1;
nodes = (
(-38,411,l),
(-38,464,l),
(-13,464,l),
(-13,411,l)
);
},
{
closed = 1;
nodes = (
(-5,411,l),
(-5,429,l),
(4,429,l),
(4,411,l)
);
},
{
closed = 1;
nodes = (
(31,412,o),
(36,417,o),
(36,423,cs),
(36,429,o),
(31,433,o),
(25,433,cs),
(19,433,o),
(15,429,o),
(15,423,cs),
(15,417,o),
(19,412,o),
(25,412,cs)
);
},
{
closed = 1;
nodes = (
(12,411,l),
(12,464,l),
(37,464,l),
(37,411,l)
);
}
);
width = 0;
}
);
note = M;
unicode = 77;
},
{
glyphname = N;
lastChange = "2024-02-06 15:49:10 +0000";
layers = (
{
hints = (
{
horizontal = 1;
place = (275,123);
type = Stem;
},
{
horizontal = 1;
place = (275,65);
type = Stem;
},
{
horizontal = 1;
place = (235,56);
type = Stem;
},
{
place = (28,34);
type = Stem;
},
{
place = (-22,45);
type = Stem;
},
{
place = (-61,34);
type = Stem;
}
);
layerId = m01;
shapes = (
{
closed = 1;
nodes = (
(-22,288,l),
(-22,200,l),
(24,200,l),
(24,255,l),
(32,244,o),
(45,236,o),
(60,236,cs),
(80,236,o),
(95,248,o),
(102,264,c),
(95,281,o),
(80,292,o),
(60,292,cs),
(45,292,o),
(32,285,o),
(24,273,c),
(24,342,l),
(46,350,o),
(62,373,o),
(62,400,c),
(28,400,l),
(28,384,o),
(16,372,o),
(1,372,cs),
(-15,372,o),
(-27,384,o),
(-27,400,c),
(-61,400,l),
(-61,373,o),
(-45,350,o),
(-22,342,c),
(-22,297,l),
(-24,312,o),
(-32,326,o),
(-47,334,cs),
(-64,345,o),
(-85,342,o),
(-100,332,c),
(-103,312,o),
(-93,293,o),
(-76,282,cs),
(-59,272,o),
(-38,274,o),
(-23,286,cs)
);
}
);
width = 1;
}
);
note = N;
unicode = 78;
},
{
glyphname = O;
lastChange = "2024-02-06 15:49:24 +0000";
layers = (
{
hints = (
{
horizontal = 1;
place = (153,47);
type = Stem;
},
{
horizontal = 1;
place = (134,57);
type = Stem;
},
{
horizontal = 1;
place = (101,61);
type = Stem;
},
{
horizontal = 1;
place = (0,200);
type = Stem;
},
{
horizontal = 1;
place = (0,162);
type = Stem;
},
{
place = (-23,45);
type = Stem;
}
);
layerId = m01;
shapes = (
{
closed = 1;
nodes = (
(101,0,l),
(101,44,o),
(67,82,o),
(23,92,c),
(23,110,l),
(36,100,o),
(56,98,o),
(72,108,cs),
(88,117,o),
(97,134,o),
(94,153,c),
(80,164,o),
(60,165,o),
(44,156,cs),
(32,149,o),
(24,137,o),
(23,125,c),
(23,200,l),
(-23,200,l),
(-23,173,l),
(-32,184,o),
(-45,192,o),
(-60,192,cs),
(-78,192,o),
(-94,180,o),
(-101,162,c),
(-94,146,o),
(-78,134,o),
(-60,134,cs),
(-45,134,o),
(-32,142,o),
(-23,153,c),
(-23,92,l),
(-68,82,o),
(-101,44,o),
(-101,0,c)
);
}
);
width = 0;
}
);
note = O;
unicode = 79;
},
{
glyphname = P;
lastChange = "2024-02-06 15:49:34 +0000";
layers = (
{
hints = (
{
horizontal = 1;
place = (487,45);
type = Stem;
},
{
horizontal = 1;
place = (451,13);
type = Stem;
},
{
horizontal = 1;
place = (440,10);
type = Stem;
},
{
horizontal = 1;
place = (399,72);
type = Stem;
},
{
place = (8,21);
type = Stem;
},
{
place = (-4,9);
type = Stem;
},
{
place = (-28,22);
type = Stem;
}
);
layerId = m01;
shapes = (
{
closed = 1;
nodes = (
(11,400,ls),
(39,400,o),
(59,425,o),
(51,452,cs),
(35,505,ls),
(31,521,o),
(16,533,o),
(-1,533,cs),
(-17,533,o),
(-32,521,o),
(-37,505,cs),
(-52,452,ls),
(-60,425,o),
(-40,400,o),
(-12,400,cs)
);
},
{
closed = 1;
nodes = (
(-12,452,o),
(-6,456,o),
(-6,463,cs),
(-6,467,o),
(-10,470,o),
(-14,472,c),
(-13,470,l),
(-13,468,o),
(-16,465,o),
(-18,465,cs),
(-20,465,o),
(-22,468,o),
(-22,470,c),
(-25,470,o),
(-29,467,o),
(-29,463,cs),
(-29,456,o),
(-24,452,o),
(-18,452,cs)
);
},
{
closed = 1;
nodes = (
(-22,405,o),
(-41,424,o),
(-41,447,cs),
(-41,469,o),
(-22,488,o),
(0,488,cs),
(23,488,o),
(40,469,o),
(40,447,cs),
(40,424,o),
(23,405,o),
(0,405,cs)
);
},
{
closed = 1;
nodes = (
(3,441,o),
(4,444,o),
(4,447,cs),
(4,449,o),
(3,452,o),
(0,452,cs),
(-2,452,o),
(-5,449,o),
(-5,447,cs),
(-5,444,o),
(-2,441,o),
(0,441,cs)
);
},
{
closed = 1;
nodes = (
(23,452,o),
(28,456,o),
(28,463,cs),
(28,467,o),
(25,470,o),
(21,472,c),
(21,468,o),
(19,465,o),
(17,465,cs),
(15,465,o),
(13,468,o),
(13,470,cs),
(13,472,l),
(9,470,o),
(7,467,o),
(7,463,cs),
(7,456,o),
(11,452,o),
(17,452,cs)
);
}
);
width = 0;
}
);
note = P;
unicode = 80;
},
{
glyphname = Q;
lastChange = "2024-02-06 15:49:44 +0000";
layers = (
{
hints = (
{
horizontal = 1;
place = (199,20);
type = Stem;
},
{
place = (6,93);
type = Stem;
},
{
place = (-99,21);
type = Stem;
}
);
layerId = m01;
shapes = (
{
closed = 1;
nodes = (
(55,200,o),
(99,235,o),
(99,302,cs),
(99,336,o),
(88,372,o),
(71,400,c),
(47,360,l),
(35,381,l),
(7,334,l),
(-28,394,l),
(-48,360,l),
(-72,400,l),
(-89,372,o),
(-100,336,o),
(-100,302,cs),
(-100,235,o),
(-54,200,o),
(0,200,cs)
);
},
{
closed = 1;
nodes = (
(5,220,l),
(-17,220,o),
(-38,227,o),
(-53,243,cs),
(-69,257,o),
(-78,280,o),
(-78,308,c),
(-58,308,l),
(-58,284,o),
(-50,267,o),
(-40,256,cs),
(-29,245,o),
(-13,240,o),
(5,240,c)
);
}
);
width = 0;
}
);
note = Q;
unicode = 81;
},
{
glyphname = R;
lastChange = "2024-02-06 15:49:55 +0000";
layers = (
{
hints = (
{
horizontal = 1;
place = (104,96);
type = Stem;
},
{
horizontal = 1;
place = (80,10);
type = Stem;
},
{
horizontal = 1;
place = (49,17);
type = Stem;
},
{
horizontal = 1;
place = (0,13);
type = Stem;
},
{
place = (60,10);
type = Stem;
},
{
place = (12,10);
type = Stem;
},
{
place = (-21,10);
type = Stem;
},
{
place = (-69,10);
type = Stem;
}
);
layerId = m01;
shapes = (
{
closed = 1;
nodes = (
(56,0,o),
(69,12,o),
(69,29,cs),
(69,200,l),
(11,200,l),
(11,29,ls),
(11,12,o),
(24,0,o),
(40,0,cs)
);
},
{
closed = 1;
nodes = (
(-52,13,o),
(-60,21,o),
(-60,32,cs),
(-60,49,l),
(-22,49,l),
(-22,32,ls),
(-22,21,o),
(-32,13,o),
(-41,13,cs)
);
},
{
closed = 1;
nodes = (
(-60,67,l),
(-60,80,l),
(-22,80,l),
(-22,67,l)
);
},
{
closed = 1;
nodes = (
(-25,0,o),
(-12,12,o),
(-12,29,cs),
(-12,200,l),
(-70,200,l),
(-70,29,ls),
(-70,12,o),
(-57,0,o),
(-41,0,cs)
);
},
{
closed = 1;
nodes = (
(-60,90,l),
(-60,104,l),
(-22,104,l),
(-22,90,l)
);
},
{
closed = 1;
nodes = (
(29,13,o),
(21,21,o),
(21,32,cs),
(21,49,l),
(59,49,l),
(59,32,ls),
(59,21,o),
(49,13,o),
(40,13,cs)
);
},
{
closed = 1;
nodes = (
(21,67,l),
(21,80,l),
(59,80,l),
(59,67,l)
);
},
{
closed = 1;
nodes = (
(21,90,l),
(21,104,l),
(59,104,l),
(59,90,l)
);
}
);
width = 0;
}
);
note = R;
unicode = 82;
},
{
glyphname = S;
lastChange = "2024-02-06 15:50:08 +0000";
layers = (
{
hints = (
{
horizontal = 1;
place = (483,25);
type = Stem;
},
{
horizontal = 1;
place = (464,43);
type = Stem;
},
{
horizontal = 1;
place = (464,12);
type = Stem;
},
{
horizontal = 1;
place = (456,20);
type = Stem;
},
{
horizontal = 1;
place = (399,29);
type = Stem;
},
{
place = (51,17);
type = Stem;
},
{
place = (32,19);
type = Stem;
},
{
place = (12,12);
type = Stem;
},
{
place = (0,15);
type = Stem;
},
{
place = (-8,16);
type = Stem;
},
{
place = (-24,12);
type = Stem;
},
{
place = (-68,17);
type = Stem;
}
);
layerId = m01;
shapes = (
{
closed = 1;
nodes = (
(37,400,o),
(68,431,o),
(68,468,c),
(48,484,l),
(55,508,l),
(29,509,l),
(21,533,l),
(0,518,l),
(-21,533,l),
(-29,509,l),
(-56,508,l),
(-48,484,l),
(-68,468,l),
(-68,431,o),
(-39,400,o),
(0,400,cs)
);
},
{
closed = 1;
nodes = (
(-43,429,o),
(-51,437,o),
(-51,448,cs),
(-51,457,o),
(-43,465,o),
(-33,465,cs),
(-31,465,l),
(-32,467,o),
(-33,469,o),
(-33,472,cs),
(-33,478,o),
(-27,484,o),
(-20,484,cs),
(-13,484,o),
(-8,478,o),
(-8,472,cs),
(-8,465,o),
(-13,460,o),
(-20,460,cs),
(-21,460,l),
(-17,457,o),
(-16,452,o),
(-16,448,cs),
(-16,437,o),
(-24,429,o),
(-33,429,cs)
);
},
{
closed = 1;
nodes = (
(0,448,l),
(-11,457,l),
(11,457,l)
);
},
{
closed = 1;
nodes = (
(-15,465,o),
(-12,468,o),
(-12,472,cs),
(-12,474,o),
(-15,477,o),
(-19,477,cs),
(-21,477,o),
(-24,474,o),
(-24,472,cs),
(-24,468,o),
(-21,465,o),
(-19,465,cs)
);
},
{
closed = 1;
nodes = (
(23,429,o),
(15,437,o),
(15,448,cs),
(15,452,o),
(17,457,o),
(20,460,c),
(13,460,o),
(8,465,o),
(8,472,cs),
(8,478,o),
(13,484,o),
(20,484,cs),
(27,484,o),
(32,478,o),
(32,472,cs),
(32,469,o),
(31,467,o),
(29,465,c),
(33,465,ls),
(43,465,o),
(51,457,o),
(51,448,cs),
(51,437,o),
(43,429,o),
(33,429,cs)
);
},
{
closed = 1;
nodes = (
(21,465,o),
(24,468,o),
(24,472,cs),
(24,474,o),
(21,477,o),
(17,477,cs),
(15,477,o),
(12,474,o),
(12,472,cs),
(12,468,o),
(15,465,o),
(17,465,cs)
);
}
);
width = 0;
}
);
note = S;
unicode = 83;
},
{
glyphname = T;
lastChange = "2024-02-06 15:50:18 +0000";
layers = (
{
hints = (
{
horizontal = 1;
place = (376,22);
type = Stem;
},
{
horizontal = 1;
place = (199,49);
type = Stem;
},
{
place = (73,48);
type = Stem;
},
{
place = (58,62);
type = Stem;
},
{
place = (-120,64);
type = Stem;
},
{
place = (-120,48);
type = Stem;
}
);
layerId = m01;
shapes = (
{
closed = 1;
nodes = (
(79,200,l),
(103,204,o),
(120,224,o),
(120,248,cs),
(120,352,ls),
(120,378,o),
(99,400,o),
(72,400,c),
(72,352,l),
(60,380,o),
(32,400,o),
(0,400,cs),
(-33,400,o),
(-62,378,o),
(-73,349,c),
(-73,400,l),
(-100,400,o),
(-121,378,o),
(-121,352,cs),
(-121,248,ls),
(-121,224,o),
(-102,203,o),
(-78,200,c)
);
},
{
closed = 1;
nodes = (
(-32,249,o),
(-57,277,o),
(-57,313,cs),
(-57,348,o),
(-32,377,o),
(0,377,cs),
(32,377,o),
(57,348,o),
(57,313,cs),
(57,277,o),
(32,249,o),
(0,249,cs)
);
}
);
width = 0;
}
);
note = T;
unicode = 84;
},
{
glyphname = U;
lastChange = "2024-02-06 15:50:28 +0000";
layers = (
{
hints = (
{
horizontal = 1;
place = (41,17);
type = Stem;
},
{
place = (45,17);
type = Stem;
},
{
place = (-39,17);
type = Stem;
}
);
layerId = m01;
shapes = (
{
closed = 1;
nodes = (
(16,0,l),
(44,27,l),
(44,0,l),
(61,0,l),
(61,126,l),
(73,130,o),
(81,141,o),
(81,153,cs),
(81,200,l),
(25,200,l),
(25,153,ls),
(25,141,o),
(33,130,o),
(44,126,c),
(44,59,l),
(1,59,l),
(1,41,l),
(33,41,l),
(4,12,l)
);
},
{
closed = 1;
nodes = (
(-68,0,l),
(-40,27,l),
(-40,0,l),
(-22,0,l),
(-22,126,l),
(-12,130,o),
(-4,141,o),
(-4,153,cs),
(-4,200,l),
(-60,200,l),
(-60,153,ls),
(-60,141,o),
(-52,130,o),
(-40,126,c),
(-40,59,l),
(-82,59,l),
(-82,41,l),
(-50,41,l),
(-80,12,l)
);
}
);
width = 0;
}
);
note = U;
unicode = 85;
},
{
glyphname = V;
lastChange = "2024-02-06 15:50:37 +0000";
layers = (
{
hints = (
{
horizontal = 1;
place = (480,33);
type = Stem;
},
{
horizontal = 1;
place = (399,23);
type = Stem;
},
{
place = (40,11);
type = Stem;
},
{
place = (-51,11);
type = Stem;
}
);
layerId = m01;
shapes = (
{
closed = 1;
nodes = (
(-51,400,l),
(51,400,l),
(51,469,ls),
(51,492,o),
(35,510,o),
(12,514,c),
(13,516,o),
(13,517,o),
(13,520,cs),
(13,526,o),
(7,533,o),
(0,533,cs),
(-7,533,o),
(-13,526,o),
(-13,520,cs),
(-13,517,o),
(-13,516,o),
(-12,514,c),
(-35,510,o),
(-51,492,o),
(-51,469,cs)
);
},
{
closed = 1;
nodes = (
(0,429,l),
(12,436,l),
(0,444,l),
(-12,436,l)
);
},
{
closed = 1;
nodes = (
(-13,449,o),
(-9,452,o),
(-9,456,c),
(-5,456,l),
(-16,476,l),
(-28,456,l),
(-23,456,l),
(-23,452,o),
(-20,449,o),
(-16,449,cs)
);
},
{
closed = 1;
nodes = (
(-21,423,o),
(-40,440,o),
(-40,463,cs),
(-40,481,l),
(40,481,l),
(40,463,ls),
(40,440,o),
(21,423,o),
(0,423,cs)
);
},
{
closed = 1;
nodes = (
(20,449,o),
(24,452,o),
(24,456,c),
(28,456,l),
(16,476,l),
(5,456,l),
(9,456,l),
(9,452,o),
(13,449,o),
(16,449,cs)
);
}
);
width = 0;
}
);
note = V;
unicode = 86;
},
{
glyphname = W;
lastChange = "2024-02-06 15:50:49 +0000";
layers = (
{
hints = (
{
horizontal = 1;
place = (368,31);
type = Stem;
},
{
horizontal = 1;
place = (259,80);
type = Stem;
},
{
horizontal = 1;
place = (215,15);
type = Stem;
},
{
horizontal = 1;
place = (200,31);
type = Stem;
},
{
place = (69,11);
type = Stem;
},
{
place = (-40,80);
type = Stem;
},
{
place = (-80,11);
type = Stem;
}
);
layerId = m01;
shapes = (
{
closed = 1;
nodes = (
(0,200,l),
(13,216,l),
(51,189,o),
(100,196,o),
(132,236,c),
(80,300,l),
(132,364,l),
(100,403,o),
(51,410,o),
(13,384,c),
(0,400,l),
(-13,384,l),
(-51,410,o),
(-100,403,o),
(-132,364,c),
(-80,300,l),
(-132,236,l),
(-100,196,o),
(-51,189,o),
(-13,216,c)
);
},
{
closed = 1;
nodes = (
(-39,231,o),
(-69,261,o),
(-69,300,cs),
(-69,338,o),
(-39,369,o),
(0,369,cs),
(39,369,o),
(69,338,o),
(69,300,cs),
(69,261,o),
(39,231,o),
(0,231,cs)
);
},
{
closed = 1;
nodes = (
(21,260,o),
(40,278,o),
(40,300,cs),
(40,321,o),
(21,340,o),
(0,340,cs),
(-21,340,o),
(-40,321,o),
(-40,300,cs),
(-40,278,o),
(-21,260,o),
(0,260,cs)
);
}
);
width = 0;
}
);
note = W;
unicode = 87;
},
{
glyphname = X;
lastChange = "2024-02-06 15:51:45 +0000";
layers = (
{
hints = (
{
horizontal = 1;
place = (57,140);
type = Stem;
},
{
horizontal = 1;
place = (24,20);
type = Stem;
},
{
horizontal = 1;
place = (0,24);
type = Stem;
},
{
place = (27,11);
type = Stem;
},
{
place = (11,9);
type = Stem;
},
{
place = (-20,9);
type = Stem;
},
{
place = (-37,11);
type = Stem;
}
);
layerId = m01;
shapes = (
{
closed = 1;
nodes = (
(-9,57,l),
(-9,57,o),
(-7,104,o),
(-3,141,cs),
(-1,146,o),
(0,153,o),
(0,160,c),
(1,153,o),
(1,146,o),
(3,141,cs),
(7,104,o),
(9,57,o),
(9,57,c),
(98,57,l),
(98,109,o),
(63,198,o),
(0,198,cs),
(-63,198,o),
(-98,109,o),
(-98,57,c)
);
},
{
closed = 1;
nodes = (
(-70,0,l),
(-27,0,l),
(-27,24,l),
(-20,24,l),
(-20,0,l),
(-11,0,l),
(-11,44,l),
(-39,44,l),
(-36,24,l),
(-60,24,ls),
(-66,24,o),
(-70,19,o),
(-70,13,cs)
);
},
{
closed = 1;
nodes = (
(11,0,l),
(20,0,l),
(20,24,l),
(27,24,l),
(27,0,l),
(72,0,l),
(72,13,ls),
(72,19,o),
(67,24,o),
(60,24,cs),
(36,24,l),
(39,44,l),
(11,44,l)
);
}
);
width = 0;
}
);
note = X;
unicode = 88;
},
{
glyphname = Y;
lastChange = "2024-02-06 15:51:55 +0000";
layers = (
{
hints = (
{
horizontal = 1;
place = (492,40);
type = Stem;
},
{
horizontal = 1;
place = (455,37);
type = Stem;
},
{
horizontal = 1;
place = (436,56);
type = Stem;
},
{
horizontal = 1;
place = (436,13);
type = Stem;
},
{
horizontal = 1;
place = (399,93);
type = Stem;
},
{
horizontal = 1;
place = (399,33);
type = Stem;
},
{
horizontal = 1;
place = (399,21);
type = Stem;
},
{
place = (108,27);
type = Stem;
},
{
place = (90,9);
type = Stem;
},
{
place = (74,9);
type = Stem;
},
{
place = (47,20);
type = Stem;
},
{
place = (12,13);
type = Stem;
},
{
place = (4,43);
type = Stem;
},
{
place = (4,21);
type = Stem;
},
{
place = (-27,23);
type = Stem;
},
{
place = (-48,44);
type = Stem;
},
{
place = (-69,21);
type = Stem;
},
{
place = (-86,9);
type = Stem;
},
{
place = (-102,9);
type = Stem;
},
{
place = (-134,24);
type = Stem;
}
);
layerId = m01;
shapes = (
{
closed = 1;
nodes = (
(-110,400,l),
(-110,437,l),
(-102,437,l),
(-102,400,l),
(-93,400,l),
(-93,437,l),
(-86,437,l),
(-86,400,l),
(-77,400,l),
(-77,437,l),
(-69,437,l),
(-69,400,l),
(-48,400,l),
(-48,444,l),
(-45,420,o),
(-25,400,o),
(0,400,cs),
(25,400,o),
(45,419,o),
(47,444,c),
(47,400,l),
(67,400,l),
(67,437,l),
(74,437,l),
(74,400,l),
(84,400,l),
(84,437,l),
(90,437,l),
(90,400,l),
(100,400,l),
(100,437,l),
(108,437,l),
(108,400,l),
(134,400,l),
(134,473,o),
(74,533,o),
(0,533,cs),
(-74,533,o),
(-134,473,o),
(-134,400,c)
);
},
{
closed = 1;
nodes = (
(-28,435,o),
(-31,437,o),
(-31,441,c),
(-29,445,o),
(-25,449,o),
(-20,449,cs),
(-15,449,o),
(-11,445,o),
(-8,441,c),
(-9,437,o),
(-12,435,o),
(-15,433,c),
(-13,435,o),
(-13,436,o),
(-13,437,cs),
(-13,441,o),
(-16,444,o),
(-20,444,cs),
(-24,444,o),
(-27,441,o),
(-27,437,cs),
(-27,436,o),
(-25,435,o),
(-25,433,c)
);
},
{
closed = 1;
nodes = (
(-4,421,l),
(-4,456,l),
(4,456,l),
(4,421,l)
);
},
{
closed = 1;
nodes = (
(-48,493,l),
(47,493,l),
(47,451,l),
(45,474,o),
(25,493,o),
(0,493,cs),
(-25,493,o),
(-45,474,o),
(-48,451,c)
);
},
{
closed = 1;
nodes = (
(11,435,o),
(9,437,o),
(8,441,c),
(9,445,o),
(13,449,o),
(19,449,cs),
(24,449,o),
(29,445,o),
(31,441,c),
(29,437,o),
(27,435,o),
(24,433,c),
(25,435,o),
(25,436,o),
(25,437,cs),
(25,441,o),
(23,444,o),
(19,444,cs),
(16,444,o),
(12,441,o),
(12,437,cs),
(12,436,o),
(13,435,o),
(13,433,c)
);
}
);
width = 0;
}
);
note = Y;
unicode = 89;
},
{
glyphname = Z;
lastChange = "2024-02-06 15:52:04 +0000";
layers = (
{
hints = (
{
horizontal = 1;
place = (366,33);
type = Stem;
},
{
horizontal = 1;
place = (312,58);
type = Stem;
},
{
horizontal = 1;
place = (200,200);
type = Stem;
},
{
horizontal = 1;
place = (200,170);
type = Stem;
},
{
place = (76,29);
type = Stem;
},
{
place = (40,85);
type = Stem;
},
{
place = (40,65);
type = Stem;
},
{
place = (-108,67);
type = Stem;
},
{
place = (-108,32);
type = Stem;
},
{
place = (-125,84);
type = Stem;
}
);
layerId = m01;
shapes = (
{
closed = 1;
nodes = (
(-125,200,l),
(125,200,l),
(76,316,l),
(105,309,l),
(105,366,l),
(125,366,l),
(125,400,l),
(40,400,l),
(40,382,o),
(27,370,o),
(11,370,cs),
(-12,370,ls),
(-28,370,o),
(-41,382,o),
(-41,400,c),
(-125,400,l),
(-125,366,l),
(-108,366,l),
(-108,309,l),
(-76,316,l)
);
}
);
width = 0;
}
);
note = Z;
unicode = 90;
},
{
glyphname = a;
lastChange = "2024-02-06 15:52:13 +0000";
layers = (
{
hints = (
{
horizontal = 1;
place = (56,143);
type = Stem;
},
{
horizontal = 1;
place = (0,16);
type = Stem;
},
{
place = (4,113);
type = Stem;
},
{
place = (4,53);
type = Stem;
},
{
place = (-55,52);
type = Stem;
},
{
place = (-116,113);
type = Stem;
}
);
layerId = m01;
shapes = (
{
closed = 1;
nodes = (
(-118,0,o),
(-114,4,o),
(-114,4,c),
(-114,4,o),
(-106,0,o),
(-98,0,cs),
(-92,0,o),
(-88,1,o),
(-85,3,c),
(-82,3,o),
(-80,4,o),
(-77,4,cs),
(-72,4,o),
(-65,4,o),
(-57,3,cs),
(-44,1,o),
(-28,0,o),
(-13,0,cs),
(0,0,o),
(-3,21,o),
(-8,31,cs),
(-12,36,o),
(-13,47,o),
(-15,56,c),
(-4,56,l),
(-4,200,l),
(-117,200,l),
(-117,56,l),
(-56,56,l),
(-57,44,l),
(-113,19,ls),
(-116,17,o),
(-118,17,o),
(-121,16,c),
(-129,16,l),
(-129,16,o),
(-133,16,o),
(-136,13,cs),
(-138,11,o),
(-141,0,o),
(-129,0,cs)
);
},
{
closed = 1;
nodes = (
(28,0,o),
(44,1,o),
(56,3,cs),
(64,4,o),
(72,4,o),
(76,4,cs),
(79,4,o),
(81,3,o),
(84,3,c),
(88,1,o),
(92,0,o),
(97,0,cs),
(107,0,o),
(113,4,o),
(113,4,c),
(113,4,o),
(117,0,o),
(129,0,cs),
(140,0,o),
(137,11,o),
(136,13,c),
(133,16,o),
(129,16,o),
(128,16,cs),
(121,16,l),
(117,17,o),
(115,17,o),
(113,19,c),
(56,44,l),
(56,56,l),
(116,56,l),
(116,200,l),
(3,200,l),
(3,56,l),
(13,56,l),
(13,47,o),
(12,36,o),
(8,31,cs),
(1,21,o),
(0,0,o),
(13,0,cs)
);
}
);
width = 0;
}
);
note = a;
unicode = 97;
},
{
glyphname = b;
lastChange = "2024-02-06 15:52:24 +0000";
layers = (
{
hints = (
{
horizontal = 1;
place = (468,20);
type = Stem;
},
{
horizontal = 1;
place = (458,31);
type = Stem;
},
{
horizontal = 1;
place = (430,9);
type = Stem;
},
{
horizontal = 1;
place = (399,21);
type = Stem;
},
{
horizontal = 1;
place = (399,17);
type = Stem;
},
{
place = (41,24);
type = Stem;
},
{
place = (25,15);
type = Stem;
},
{
place = (17,23);
type = Stem;
},
{
place = (17,9);
type = Stem;
},
{
place = (-8,16);
type = Stem;
},
{
place = (-40,15);
type = Stem;
},
{
place = (-41,24);
type = Stem;
},
{
place = (-64,56);
type = Stem;
},
{
place = (-64,9);
type = Stem;
},
{
place = (-65,11);
type = Stem;
}
);
layerId = m01;
shapes = (
{
closed = 1;
nodes = (
(31,400,o),
(57,405,o),
(64,431,c),
(57,425,o),
(49,421,o),
(41,421,cs),
(23,421,o),
(8,436,o),
(8,455,cs),
(8,459,l),
(17,459,l),
(17,455,ls),
(17,441,o),
(28,431,o),
(41,431,cs),
(53,431,o),
(64,440,o),
(65,452,c),
(63,468,o),
(53,477,o),
(40,482,c),
(40,506,l),
(44,508,o),
(47,513,o),
(47,518,cs),
(47,526,o),
(40,533,o),
(32,533,cs),
(24,533,o),
(17,526,o),
(17,518,cs),
(17,513,o),
(20,508,o),
(25,506,c),
(25,486,l),
(17,488,o),
(8,489,o),
(0,489,cs),
(-9,489,o),
(-17,488,o),
(-25,486,c),
(-25,506,l),
(-21,508,o),
(-19,513,o),
(-19,518,cs),
(-19,526,o),
(-24,533,o),
(-32,533,cs),
(-40,533,o),
(-47,526,o),
(-47,518,cs),
(-47,513,o),
(-44,508,o),
(-40,506,c),
(-40,482,l),
(-53,477,o),
(-63,468,o),
(-65,452,c),
(-64,440,o),
(-53,431,o),
(-41,431,cs),
(-28,431,o),
(-17,441,o),
(-17,455,cs),
(-17,459,l),
(-8,459,l),
(-8,455,ls),
(-8,436,o),
(-23,421,o),
(-41,421,cs),
(-51,421,o),
(-59,425,o),
(-64,431,c),
(-57,405,o),
(-32,400,o),
(0,400,cs)
);
},
{
closed = 1;
nodes = (
(-47,441,o),
(-49,443,o),
(-51,444,cs),
(-53,447,o),
(-55,449,o),
(-55,452,c),
(-56,455,o),
(-56,457,o),
(-55,460,cs),
(-53,463,o),
(-52,465,o),
(-49,467,cs),
(-47,468,o),
(-44,469,o),
(-41,469,c),
(-41,455,l),
(-27,455,l),
(-27,452,o),
(-28,449,o),
(-29,447,cs),
(-31,444,o),
(-33,443,o),
(-36,441,cs),
(-39,440,o),
(-41,440,o),
(-44,440,c)
);
},
{
closed = 1;
nodes = (
(-5,417,o),
(-8,421,o),
(-8,427,cs),
(-8,431,o),
(-5,435,o),
(0,435,cs),
(4,435,o),
(8,431,o),
(8,427,cs),
(8,421,o),
(4,417,o),
(0,417,cs)
);
},
{
closed = 1;
nodes = (
(31,444,l),
(27,452,l),
(27,455,o),
(27,457,o),
(28,460,cs),
(29,463,o),
(31,465,o),
(33,467,cs),
(35,468,o),
(37,469,o),
(41,469,c),
(41,455,l),
(55,455,l),
(55,452,o),
(55,449,o),
(52,447,c),
(51,444,o),
(49,443,o),
(47,441,cs),
(44,440,o),
(41,440,o),
(37,440,c)
);
}
);
width = 0;
}
);
note = b;
unicode = 98;
},
{
glyphname = c;
lastChange = "2024-02-06 15:52:35 +0000";
layers = (
{
hints = (
{
horizontal = 1;
place = (201,200);
type = Stem;
},
{
place = (118,17);
type = Stem;
},
{
place = (-47,93);
type = Stem;
},
{
place = (-136,17);
type = Stem;
}
);
layerId = m01;
shapes = (
{
closed = 1;
nodes = (
(-47,200,l),
(47,200,l),
(47,212,l),
(63,200,o),
(84,196,o),
(102,204,c),
(47,300,l),
(47,337,l),
(118,215,l),
(137,231,o),
(142,260,o),
(129,283,cs),
(84,360,ls),
(73,378,o),
(53,389,o),
(32,388,c),
(24,396,o),
(13,400,o),
(0,400,cs),
(-12,400,o),
(-24,396,o),
(-32,388,c),
(-52,389,o),
(-73,380,o),
(-84,360,cs),
(-129,283,ls),
(-142,260,o),
(-137,231,o),
(-118,215,c),
(-47,340,l),
(-47,302,l),
(-102,204,l),
(-84,196,o),
(-61,200,o),
(-47,213,c)
);
}
);
width = 0;
}
);
note = c;
unicode = 99;
},
{
glyphname = d;
lastChange = "2024-02-06 15:52:44 +0000";
layers = (
{
hints = (
{
horizontal = 1;
place = (149,51);
type = Stem;
},
{
horizontal = 1;
place = (118,20);
type = Stem;
},
{
horizontal = 1;
place = (90,17);
type = Stem;
},
{
horizontal = 1;
place = (59,21);
type = Stem;
},
{
horizontal = 1;
place = (0,44);
type = Stem;
},
{
place = (-9,19);
type = Stem;
},
{
place = (-47,93);
type = Stem;
}
);
layerId = m01;
shapes = (
{
closed = 1;
nodes = (
(-47,149,l),
(47,149,l),
(47,200,l),
(-47,200,l)
);
},
{
closed = 1;
nodes = (
(-114,3,o),
(-109,3,o),
(-105,7,cs),
(-64,48,l),
(-60,51,o),
(-60,57,o),
(-64,61,cs),
(-68,65,o),
(-73,65,o),
(-77,61,cs),
(-118,20,ls),
(-122,16,o),
(-122,11,o),
(-118,7,cs)
);
},
{
closed = 1;
nodes = (
(5,0,o),
(9,4,o),
(9,9,cs),
(9,35,ls),
(9,40,o),
(5,44,o),
(0,44,cs),
(-5,44,o),
(-9,40,o),
(-9,35,cs),
(-9,9,ls),
(-9,4,o),
(-5,0,o),
(0,0,cs)
);
},
{
closed = 1;
nodes = (
(-82,118,ls),
(-77,118,o),
(-73,124,o),
(-73,129,cs),
(-73,134,o),
(-77,138,o),
(-82,138,cs),
(-116,138,ls),
(-121,138,o),
(-125,134,o),
(-125,129,cs),
(-125,124,o),
(-121,118,o),
(-116,118,cs)
);
},
{
closed = 1;
nodes = (
(16,59,o),
(31,67,o),
(39,80,c),
(-40,80,l),
(-31,67,o),
(-17,59,o),
(0,59,cs)
);
},
{
closed = 1;
nodes = (
(44,90,l),
(45,96,o),
(47,100,o),
(47,105,cs),
(47,108,l),
(-47,108,l),
(-47,105,ls),
(-47,100,o),
(-47,96,o),
(-44,90,c)
);
},
{
closed = 1;
nodes = (
(105,7,l),
(108,3,o),
(114,3,o),
(118,7,cs),
(122,11,o),
(122,16,o),
(118,20,cs),
(77,61,ls),
(73,65,o),
(67,65,o),
(64,61,cs),
(60,57,o),
(60,51,o),
(64,48,c)
);
},
{
closed = 1;
nodes = (
(-47,118,l),
(47,118,l),
(47,138,l),
(-47,138,l)
);
},
{
closed = 1;
nodes = (
(116,118,ls),
(121,118,o),
(125,124,o),
(125,129,cs),
(125,134,o),
(121,138,o),
(116,138,cs),
(82,138,ls),
(77,138,o),
(72,134,o),
(72,129,cs),
(72,124,o),
(77,118,o),
(82,118,cs)
);
}
);
width = 0;
}
);
note = d;
unicode = 100;
},
{
glyphname = e;
lastChange = "2024-02-06 15:53:14 +0000";
layers = (
{
hints = (
{
horizontal = 1;
place = (507,25);
type = Stem;
},
{
horizontal = 1;
place = (460,13);
type = Stem;
},
{
horizontal = 1;
place = (426,30);
type = Stem;
},
{
horizontal = 1;
place = (426,15);
type = Stem;
},
{
place = (52,16);
type = Stem;
},
{
place = (7,61);
type = Stem;
},
{
place = (7,32);
type = Stem;
},
{
place = (-9,20);
type = Stem;
},
{
place = (-37,13);
type = Stem;
},
{
place = (-67,60);
type = Stem;
},
{
place = (-67,15);
type = Stem;
}
);
layerId = m01;
shapes = (
{
closed = 1;
nodes = (
(-15,400,l),
(16,400,l),
(0,427,l)
);
},
{
closed = 1;
nodes = (
(-27,461,o),
(-24,464,o),
(-24,468,cs),
(-24,472,o),
(-27,474,o),
(-31,474,cs),
(-35,474,o),
(-37,472,o),
(-37,468,cs),
(-37,464,o),
(-35,461,o),
(-31,461,cs)
);
},
{
closed = 1;
nodes = (
(-43,457,o),
(-52,467,o),
(-52,477,cs),
(-52,489,o),
(-43,498,o),
(-31,498,cs),
(-19,498,o),
(-9,489,o),
(-9,477,cs),
(-9,467,o),
(-19,457,o),
(-31,457,cs)
);
},
{
closed = 1;
nodes = (
(-7,441,l),
(-7,508,l),
(7,508,l),
(7,441,l)
);
},
{
closed = 1;
nodes = (
(34,461,o),
(38,464,o),
(38,468,cs),
(38,472,o),
(34,474,o),
(30,474,cs),
(28,474,o),
(24,472,o),
(24,468,cs),
(24,464,o),
(28,461,o),
(30,461,cs)
);
},
{
closed = 1;
nodes = (
(20,457,o),
(11,467,o),
(11,477,cs),
(11,489,o),
(20,498,o),
(30,498,cs),
(42,498,o),
(52,489,o),
(52,477,cs),
(52,467,o),
(42,457,o),
(30,457,cs)
);
},
{
closed = 1;
nodes = (
(-52,493,ls),
(-81,472,o),
(-65,427,o),
(-29,427,cs),
(30,427,ls),
(66,427,o),
(81,472,o),
(53,493,cs),
(0,533,l)
);
}
);
width = 1;
}
);
note = e;
unicode = 101;
},
{
glyphname = f;
lastChange = "2024-02-06 15:53:26 +0000";
layers = (
{
hints = (
{
horizontal = 1;
place = (263,135);
type = Stem;
},
{
horizontal = 1;
place = (199,54);
type = Stem;
},
{
place = (-129,259);
type = Stem;
}
);
layerId = m01;
shapes = (
{
closed = 1;
nodes = (
(-130,264,l),
(129,264,l),
(55,378,ls),
(47,392,o),
(32,400,o),
(16,400,cs),
(-16,400,ls),
(-32,400,o),
(-46,392,o),
(-54,378,cs)
);
},
{
closed = 1;
nodes = (
(-102,220,o),
(-92,223,o),
(-86,232,cs),
(-73,255,l),
(-114,255,l),
(-117,249,ls),
(-122,241,o),
(-120,231,o),
(-110,225,cs)
);
},
{
closed = 1;
nodes = (
(-80,200,l),
(81,200,l),
(57,255,l),
(-57,255,l)
);
},
{
closed = 1;
nodes = (
(119,231,o),
(121,241,o),
(116,249,cs),
(113,255,l),
(72,255,l),
(85,232,ls),
(91,223,o),
(101,220,o),
(109,225,cs)
);
}
);
width = 0;
}
);
note = f;
unicode = 102;
},
{
glyphname = g;
lastChange = "2024-02-06 15:53:35 +0000";
layers = (
{
hints = (
{
horizontal = 1;
place = (179,20);
type = Stem;
},
{
horizontal = 1;
place = (40,159);
type = Stem;
},
{
horizontal = 1;
place = (0,25);
type = Stem;
},
{
place = (22,33);
type = Stem;
},
{
place = (8,48);
type = Stem;
},
{
place = (-55,46);
type = Stem;
},
{
place = (-55,32);
type = Stem;
}
);
layerId = m01;
shapes = (
{
closed = 1;
nodes = (
(-24,0,l),
(-24,40,l),
(-9,40,l),
(-9,172,ls),
(-9,177,o),
(-5,180,o),
(-1,180,cs),
(4,180,o),
(7,177,o),
(7,172,cs),
(7,40,l),
(21,40,l),
(21,0,l),
(93,0,l),
(93,13,o),
(83,25,o),
(68,25,cs),
(55,25,l),
(55,40,l),
(116,40,l),
(40,200,l),
(-41,200,l),
(-117,40,l),
(-56,40,l),
(-56,25,l),
(-69,25,ls),
(-84,25,o),
(-96,13,o),
(-96,0,c)
);
}
);
width = 0;
}
);
note = g;
unicode = 103;
},
{
glyphname = h;
lastChange = "2024-02-06 15:53:46 +0000";
layers = (
{
hints = (
{
horizontal = 1;
place = (399,36);
type = Stem;
},
{
place = (-63,47);
type = Stem;
},
{
place = (-63,9);
type = Stem;
}
);
layerId = m01;
shapes = (
{
closed = 1;
nodes = (
(29,400,o),
(52,415,o),
(63,436,c),
(52,436,ls),
(41,436,o),
(32,437,o),
(23,441,c),
(4,424,l),
(-4,431,l),
(13,447,l),
(4,455,l),
(21,470,l),
(-13,486,l),
(-15,492,o),
(-16,497,o),
(-16,502,cs),
(-16,513,o),
(-13,524,o),
(-8,533,c),
(-39,528,o),
(-63,500,o),
(-63,468,cs),
(-63,431,o),
(-33,400,o),
(4,400,cs)
);
},
{
closed = 1;
nodes = (
(-37,457,o),
(-47,459,o),
(-53,465,c),
(-55,473,o),
(-51,481,o),
(-44,486,c),
(-36,490,o),
(-27,489,o),
(-20,484,c),
(-19,476,o),
(-21,467,o),
(-29,463,cs)
);
},
{
closed = 1;
nodes = (
(-31,467,l),
(-27,470,ls),
(-25,472,o),
(-24,473,o),
(-24,474,cs),
(-24,477,o),
(-25,478,o),
(-25,480,c),
(-33,476,l),
(-39,484,l),
(-43,480,l),
(-43,474,ls),
(-43,473,o),
(-41,470,o),
(-41,469,c),
(-40,468,o),
(-37,467,o),
(-36,467,cs)
);
}
);
width = 0;
}
);
note = h;
unicode = 104;
},
{
glyphname = i;
lastChange = "2024-02-06 15:53:59 +0000";
layers = (
{
hints = (
{
horizontal = 1;
place = (358,10);
type = Stem;
},
{
horizontal = 1;
place = (316,32);
type = Stem;
},
{
horizontal = 1;
place = (248,32);
type = Stem;
},
{
horizontal = 1;
place = (229,12);
type = Stem;
},
{
place = (58,32);
type = Stem;
},
{
place = (24,42);
type = Stem;
},
{
place = (-65,131);
type = Stem;
},
{
place = (-91,32);
type = Stem;
}
);
layerId = m01;
shapes = (
{
closed = 1;
nodes = (
(-1,200,l),
(23,229,l),
(64,213,l),
(65,248,l),
(112,249,l),
(89,281,l),
(129,300,l),
(89,317,l),
(112,349,l),
(65,350,l),
(64,385,l),
(23,369,l),
(-1,400,l),
(-25,369,l),
(-66,385,l),
(-66,350,l),
(-113,349,l),
(-92,317,l),
(-130,300,l),
(-92,281,l),
(-113,249,l),
(-66,248,l),
(-66,213,l),
(-25,229,l)
);
},
{
closed = 1;
nodes = (
(-33,241,o),
(-60,267,o),
(-60,300,cs),
(-60,332,o),
(-33,358,o),
(-1,358,cs),
(31,358,o),
(57,332,o),
(57,300,cs),
(57,267,o),
(31,241,o),
(-1,241,cs)
);
}
);
width = 0;
}
);
note = i;
unicode = 105;
},
{
glyphname = j;
lastChange = "2024-02-06 15:54:09 +0000";
layers = (
{
hints = (
{
horizontal = 1;
place = (173,27);
type = Stem;
},
{
horizontal = 1;
place = (1,24);
type = Stem;
},
{
place = (5,27);
type = Stem;
},
{
place = (-113,25);
type = Stem;
}
);
layerId = m01;
shapes = (
{
closed = 1;
nodes = (
(-61,4,o),
(-52,9,o),
(-44,15,cs),
(-28,27,o),
(-13,44,o),
(0,65,c),
(13,44,o),
(29,27,o),
(44,15,cs),
(52,9,o),
(61,4,o),
(69,1,cs),
(78,-1,o),
(88,-1,o),
(97,3,c),
(105,8,o),
(110,17,o),
(112,25,cs),
(114,35,o),
(114,44,o),
(113,55,cs),
(109,76,o),
(101,101,o),
(86,125,cs),
(72,150,o),
(55,170,o),
(39,184,cs),
(31,190,o),
(21,194,o),
(12,197,cs),
(8,198,o),
(4,200,o),
(0,200,cs),
(-4,200,o),
(-8,198,o),
(-12,197,cs),
(-21,194,o),
(-29,190,o),
(-39,184,cs),
(-55,170,o),
(-72,150,o),
(-86,125,cs),
(-100,101,o),
(-109,76,o),
(-113,55,cs),
(-114,44,o),
(-114,35,o),
(-112,25,cs),
(-109,17,o),
(-105,8,o),
(-96,3,cs),
(-88,-1,o),
(-78,-1,o),
(-69,1,cs)
);
},
{
closed = 1;
nodes = (
(-84,25,o),
(-86,27,o),
(-88,32,cs),
(-88,36,o),
(-89,43,o),
(-88,52,cs),
(-85,68,o),
(-77,91,o),
(-64,113,cs),
(-55,130,o),
(-43,145,o),
(-32,156,c),
(-32,152,o),
(-31,148,o),
(-31,144,cs),
(-28,128,o),
(-23,111,o),
(-15,92,c),
(-15,89,o),
(-16,88,o),
(-17,85,cs),
(-31,64,o),
(-45,45,o),
(-59,35,cs),
(-66,29,o),
(-72,27,o),
(-76,25,cs),
(-81,24,o),
(-82,25,o),
(-84,25,c)
);
},
{
closed = 1;
nodes = (
(72,27,o),
(67,29,o),
(60,35,cs),
(45,45,o),
(31,64,o),
(17,85,c),
(15,92,l),
(23,111,o),
(29,128,o),
(31,144,c),
(32,148,o),
(32,152,o),
(32,156,c),
(43,145,o),
(55,130,o),
(64,113,cs),
(77,91,o),
(85,68,o),
(88,52,cs),
(89,43,o),
(89,36,o),
(88,32,cs),
(86,27,o),
(85,25,o),
(84,25,cs),
(82,25,o),
(81,24,o),
(77,25,cs)
);
},
{
closed = 1;
nodes = (
(-3,132,o),
(-4,140,o),
(-5,146,cs),
(-7,156,o),
(-7,162,o),
(-5,166,cs),
(-4,172,o),
(-3,173,o),
(-1,173,c),
(0,174,l),
(1,173,o),
(1,173,o),
(3,173,c),
(3,173,o),
(4,172,o),
(5,166,cs),
(7,162,o),
(7,156,o),
(5,146,cs),
(5,140,o),
(3,132,o),
(0,124,c)
);
}
);
width = 0;
}
);
note = j;
unicode = 106;
},
{
glyphname = k;
lastChange = "2024-02-06 15:54:21 +0000";
layers = (
{
hints = (
{
horizontal = 1;
place = (521,11);
type = Stem;
},
{
horizontal = 1;
place = (492,11);
type = Stem;
},
{
horizontal = 1;
place = (471,61);
type = Stem;
},
{
horizontal = 1;
place = (471,35);
type = Stem;
},
{
horizontal = 1;
place = (471,27);
type = Stem;
},
{
horizontal = 1;
place = (459,17);
type = Stem;
},
{
horizontal = 1;
place = (459,16);
type = Stem;
},
{
horizontal = 1;
place = (430,102);
type = Stem;
},
{
horizontal = 1;
place = (399,20);
type = Stem;
},
{
place = (11,13);
type = Stem;
},
{
place = (-13,12);
type = Stem;
},
{
place = (-24,13);
type = Stem;
},
{
place = (-39,9);
type = Stem;
}
);
layerId = m01;
shapes = (
{
closed = 1;
nodes = (
(19,400,o),
(36,407,o),
(45,420,c),
(44,420,ls),
(33,420,o),
(24,428,o),
(24,440,cs),
(24,451,o),
(33,460,o),
(44,460,cs),
(48,460,o),
(52,459,o),
(56,456,c),
(55,461,o),
(52,468,o),
(49,472,c),
(84,472,l),
(69,508,o),
(37,533,o),
(0,533,cs),
(-37,533,o),
(-69,508,o),
(-84,472,c),
(-49,472,l),
(-52,468,o),
(-55,461,o),
(-56,456,c),
(-52,459,o),
(-48,460,o),
(-44,460,cs),
(-32,460,o),
(-24,451,o),
(-24,440,cs),
(-24,428,o),
(-32,420,o),
(-44,420,cs),
(-45,420,l),
(-36,407,o),
(-19,400,o),
(0,400,cs)
);
},
{
closed = 1;
nodes = (
(-11,420,l),
(-11,431,l),
(11,431,l),
(11,420,l)
);
},
{
closed = 1;
nodes = (
(-13,436,o),
(-16,439,o),
(-16,441,cs),
(-16,444,o),
(-13,447,o),
(-11,447,cs),
(-8,447,o),
(-5,444,o),
(-5,441,cs),
(-5,439,o),
(-8,436,o),
(-11,436,cs)
);
},
{
closed = 1;
nodes = (
(-60,476,o),
(-66,481,o),
(-66,489,cs),
(-66,497,o),
(-60,504,o),
(-53,504,cs),
(-45,504,o),
(-39,497,o),
(-39,489,cs),
(-39,481,o),
(-45,476,o),
(-53,476,cs)
);
},
{
closed = 1;
nodes = (
(8,436,o),
(5,439,o),
(5,441,cs),
(5,444,o),
(8,447,o),
(11,447,cs),
(13,447,o),
(16,444,o),
(16,441,cs),
(16,439,o),
(13,436,o),
(11,436,cs)
);
},
{
closed = 1;
nodes = (
(-25,477,o),
(-29,481,o),
(-29,485,cs),
(-29,490,o),
(-25,493,o),
(-21,493,cs),
(-17,493,o),
(-13,490,o),
(-13,485,cs),
(-13,481,o),
(-17,477,o),
(-21,477,cs)
);
},
{
closed = 1;
nodes = (
(-37,504,o),
(-41,506,o),
(-41,512,cs),
(-41,516,o),
(-37,520,o),
(-33,520,cs),
(-29,520,o),
(-25,516,o),
(-25,512,cs),
(-25,506,o),
(-29,504,o),
(-33,504,cs)
);
},
{
closed = 1;
nodes = (
(3,477,o),
(-1,481,o),
(-1,485,cs),
(-1,490,o),
(3,493,o),
(7,493,cs),
(11,493,o),
(15,490,o),
(15,485,cs),
(15,481,o),
(11,477,o),
(7,477,cs)
);
},
{
closed = 1;
nodes = (
(-12,498,o),
(-17,505,o),
(-17,512,cs),
(-17,520,o),
(-12,526,o),
(-4,526,cs),
(4,526,o),
(11,520,o),
(11,512,cs),
(11,505,o),
(4,498,o),
(-4,498,cs)
);
},
{
closed = 1;
nodes = (
(29,476,o),
(24,482,o),
(24,490,cs),
(24,498,o),
(29,504,o),
(37,504,cs),
(45,504,o),
(52,498,o),
(52,490,cs),
(52,482,o),
(45,476,o),
(37,476,cs)
);
},
{
closed = 1;
nodes = (
(19,506,o),
(16,510,o),
(16,514,cs),
(16,518,o),
(19,522,o),
(24,522,cs),
(28,522,o),
(32,518,o),
(32,514,cs),
(32,510,o),
(28,506,o),
(24,506,cs)
);
},
{
closed = 1;
nodes = (
(59,476,o),
(56,480,o),
(56,484,cs),
(56,489,o),
(59,492,o),
(64,492,cs),
(68,492,o),
(72,489,o),
(72,484,cs),
(72,480,o),
(68,476,o),
(64,476,cs)
);
}
);
width = 0;
}
);
note = k;
unicode = 107;
},
{
glyphname = l;
lastChange = "2024-02-06 15:54:37 +0000";
layers = (
{
hints = (
{
horizontal = 1;
place = (290,109);
type = Stem;
},
{
horizontal = 1;
place = (290,18);
type = Stem;
},
{
horizontal = 1;
place = (199,199);
type = Stem;
},
{
horizontal = 1;
place = (199,60);
type = Stem;
},
{
horizontal = 1;
place = (199,14);
type = Stem;
},
{
place = (37,93);
type = Stem;
},
{
place = (-29,60);
type = Stem;
},
{
place = (-129,92);
type = Stem;
}
);
layerId = m01;
shapes = (
{
closed = 1;
nodes = (
(-130,200,l),
(129,200,l),
(129,260,l),
(64,260,l),
(129,324,l),
(87,366,l),
(29,309,l),
(29,400,l),
(-30,400,l),
(-30,309,l),
(-89,366,l),
(-130,324,l),
(-66,260,l),
(-130,260,l)
);
},
{
closed = 1;
nodes = (
(-22,215,o),
(-38,232,o),
(-38,253,cs),
(-38,273,o),
(-22,290,o),
(-1,290,cs),
(20,290,o),
(36,273,o),
(36,253,cs),
(36,232,o),
(20,215,o),
(-1,215,cs)
);
}
);
width = 0;
}
);
note = l;
unicode = 108;
},
{
glyphname = m;
lastChange = "2024-02-06 15:54:44 +0000";
layers = (
{
hints = (
{
horizontal = 1;
place = (37,162);
type = Stem;
},
{
horizontal = 1;
place = (0,25);
type = Stem;
},
{
place = (46,26);
type = Stem;
},
{
place = (17,17);
type = Stem;
},
{
place = (-35,17);
type = Stem;
},
{
place = (-72,26);
type = Stem;
}
);
layerId = m01;
shapes = (
{
closed = 1;
nodes = (
(16,0,l),
(33,0,l),
(33,9,l),
(45,9,l),
(45,0,l),
(72,0,l),
(72,13,ls),
(72,20,o),
(65,25,o),
(59,25,cs),
(33,25,l),
(33,37,l),
(87,37,l),
(41,200,l),
(16,200,l)
);
},
{
closed = 1;
nodes = (
(-46,0,l),
(-46,9,l),
(-36,9,l),
(-36,0,l),
(-18,0,l),
(-18,200,l),
(-44,200,l),
(-88,37,l),
(-36,37,l),
(-36,25,l),
(-61,25,ls),
(-68,25,o),
(-73,20,o),
(-73,13,cs),
(-73,0,l)
);
}
);
width = 0;
}
);
note = m;
unicode = 109;
},
{
glyphname = n;
lastChange = "2024-02-06 15:54:55 +0000";
layers = (
{
hints = (
{
horizontal = 1;
place = (450,29);
type = Stem;
},
{
horizontal = 1;
place = (450,29);
type = Stem;
},
{
horizontal = 1;
place = (399,15);
type = Stem;
},
{
place = (29,24);
type = Stem;
},
{
place = (5,48);
type = Stem;
},
{
place = (5,9);
type = Stem;
},
{
place = (-26,21);
type = Stem;
},
{
place = (-54,13);
type = Stem;
}
);
layerId = m01;
shapes = (
{
closed = 1;
nodes = (
(-5,400,l),
(-5,423,l),
(5,423,l),
(5,400,l),
(28,400,ls),
(43,400,o),
(53,412,o),
(53,425,cs),
(53,451,l),
(84,451,l),
(84,484,l),
(44,476,l),
(19,533,l),
(-33,474,l),
(-85,484,l),
(-85,451,l),
(-54,451,l),
(-54,425,ls),
(-54,412,o),
(-42,400,o),
(-29,400,cs)
);
},
{
closed = 1;
nodes = (
(-33,415,o),
(-36,416,o),
(-37,419,c),
(-40,421,o),
(-41,424,o),
(-41,427,c),
(-42,429,o),
(-42,432,o),
(-41,435,cs),
(-40,437,o),
(-37,440,o),
(-36,441,cs),
(-33,444,o),
(-29,444,o),
(-26,444,c),
(-26,429,l),
(-12,429,l),
(-12,427,o),
(-13,424,o),
(-14,421,cs),
(-16,419,o),
(-18,416,o),
(-21,416,c),
(-24,415,o),
(-26,415,o),
(-29,415,cs)
);
},
{
closed = 1;
nodes = (
(23,415,o),
(20,416,o),
(19,419,c),
(16,421,o),
(15,424,o),
(15,427,c),
(13,429,o),
(13,432,o),
(15,435,cs),
(16,437,o),
(19,440,o),
(20,441,cs),
(23,444,o),
(25,444,o),
(29,444,c),
(29,429,l),
(44,429,l),
(44,427,o),
(43,424,o),
(41,421,cs),
(40,419,o),
(37,416,o),
(35,416,c),
(32,415,o),
(29,415,o),
(25,415,cs)
);
}
);
width = 0;
}
);
note = n;
unicode = 110;
},
{
glyphname = o;
lastChange = "2024-02-06 15:55:03 +0000";
layers = (
{
hints = (
{
horizontal = 1;
place = (200,48);
type = Stem;
},
{
place = (31,82);
type = Stem;
},
{
place = (-55,109);
type = Stem;
},
{
place = (-113,226);
type = Stem;
}
);
layerId = m01;
shapes = (
{
closed = 1;
nodes = (
(-113,217,l),
(0,308,l),
(113,217,l),
(113,273,ls),
(113,308,o),
(96,341,o),
(65,358,cs),
(0,400,l),
(-66,358,ls),
(-96,341,o),
(-113,308,o),
(-113,273,cs)
);
},
{
closed = 1;
nodes = (
(-55,200,l),
(55,200,l),
(55,248,l),
(0,290,l),
(-55,248,l)
);
},
{
closed = 1;
nodes = (
(9,342,o),
(4,348,o),
(4,356,cs),
(4,362,o),
(9,369,o),
(17,369,cs),
(24,369,o),
(31,362,o),
(31,356,cs),
(31,348,o),
(24,342,o),
(17,342,cs)
);
}
);
width = 0;
}
);
note = o;
unicode = 111;
},
{
glyphname = p;
lastChange = "2024-02-06 15:55:13 +0000";
layers = (
{
hints = (
{
horizontal = 1;
place = (148,52);
type = Stem;
},
{
horizontal = 1;
place = (137,63);
type = Stem;
},
{
horizontal = 1;
place = (100,19);
type = Stem;
},
{
place = (138,17);
type = Stem;
},
{
place = (116,40);
type = Stem;
},
{
place = (37,17);
type = Stem;
}
);
layerId = m01;
shapes = (
{
closed = 1;
nodes = (
(57,25,l),
(55,28,l),
(27,76,l),
(37,106,l),
(59,98,l),
(94,24,l),
(112,33,l),
(97,64,l),
(126,39,l),
(140,53,l),
(108,81,l),
(148,68,l),
(154,86,l),
(117,100,l),
(156,101,l),
(156,121,l),
(116,118,l),
(148,134,l),
(138,152,l),
(67,117,l),
(55,121,l),
(55,200,l),
(-55,200,l),
(-72,165,l),
(-149,193,l),
(-156,173,l),
(-80,148,l),
(-94,120,l),
(-61,74,l),
(-73,68,o),
(-77,53,o),
(-70,41,c),
(-19,67,l),
(-59,120,l),
(-51,137,l),
(5,117,l),
(-9,76,l),
(15,35,l),
(3,27,o),
(-1,12,o),
(5,0,c)
);
}
);
width = 0;
}
);
note = p;
unicode = 112;
},
{
glyphname = q;
lastChange = "2024-02-06 15:55:24 +0000";
layers = (
{
hints = (
{
horizontal = 1;
place = (399,19);
type = Stem;
},
{
place = (24,45);
type = Stem;
},
{
place = (24,24);
type = Stem;
},
{
place = (-9,19);
type = Stem;
},
{
place = (-48,24);
type = Stem;
},
{
place = (-67,43);
type = Stem;
},
{
place = (-67,29);
type = Stem;
}
);
layerId = m01;
shapes = (
{
closed = 1;
nodes = (
(16,400,o),
(31,405,o),
(44,415,cs),
(56,424,o),
(65,437,o),
(69,453,cs),
(73,468,o),
(72,484,o),
(65,498,cs),
(60,513,o),
(49,525,o),
(36,533,c),
(0,460,l),
(-36,533,l),
(-49,525,o),
(-60,513,o),
(-65,498,cs),
(-72,484,o),
(-73,468,o),
(-69,453,cs),
(-65,437,o),
(-56,424,o),
(-44,415,cs),
(-31,405,o),
(-16,400,o),
(0,400,cs)
);
},
{
closed = 1;
nodes = (
(-52,433,o),
(-63,445,o),
(-63,459,cs),
(-63,472,o),
(-52,482,o),
(-39,485,c),
(-44,477,o),
(-48,468,o),
(-48,459,cs),
(-48,449,o),
(-44,440,o),
(-39,432,c)
);
},
{
closed = 1;
nodes = (
(-15,419,l),
(0,444,l),
(15,419,l)
);
},
{
closed = 1;
nodes = (
(-27,440,o),
(-24,449,o),
(-24,459,cs),
(-24,468,o),
(-27,477,o),
(-32,485,c),
(-20,482,o),
(-9,472,o),
(-9,459,cs),
(-9,445,o),
(-20,433,o),
(-32,432,c)
);
},
{
closed = 1;
nodes = (
(20,433,o),
(9,445,o),
(9,459,cs),
(9,472,o),
(20,482,o),
(32,485,c),
(27,477,o),
(24,468,o),
(24,459,cs),
(24,449,o),
(27,440,o),
(32,432,c)
);
},
{
closed = 1;
nodes = (
(44,440,o),
(48,449,o),
(48,459,cs),
(48,468,o),
(44,477,o),
(39,485,c),
(52,482,o),
(61,472,o),
(61,459,cs),
(61,445,o),
(52,433,o),
(39,432,c)
);
}
);
width = 0;
}
);
note = q;
unicode = 113;
},
{
glyphname = r;
lastChange = "2024-02-06 15:55:34 +0000";
layers = (
{
hints = (
{
horizontal = 1;
place = (347,52);
type = Stem;
},
{
horizontal = 1;
place = (299,14);
type = Stem;
},
{
horizontal = 1;
place = (250,14);
type = Stem;
},
{
horizontal = 1;
place = (199,199);
type = Stem;
},
{
horizontal = 1;
place = (199,65);
type = Stem;
},
{
horizontal = 1;
place = (199,16);
type = Stem;
},
{
place = (17,9);
type = Stem;
},
{
place = (-25,9);
type = Stem;
}
);
layerId = m01;
shapes = (
{
closed = 1;
nodes = (
(-122,200,l),
(121,200,l),
(56,364,l),
(64,400,l),
(20,400,l),
(-1,364,l),
(-21,400,l),
(-65,400,l),
(-57,364,l)
);
},
{
closed = 1;
nodes = (
(-98,216,l),
(-52,334,l),
(-26,216,l)
);
},
{
closed = 1;
nodes = (
(-9,216,o),
(-17,224,o),
(-17,233,cs),
(-17,243,o),
(-9,251,o),
(-1,251,cs),
(8,251,o),
(16,243,o),
(16,233,cs),
(16,224,o),
(8,216,o),
(-1,216,cs)
);
},
{
closed = 1;
nodes = (
(-9,265,o),
(-17,273,o),
(-17,282,cs),
(-17,292,o),
(-9,300,o),
(-1,300,cs),
(8,300,o),
(16,292,o),
(16,282,cs),
(16,273,o),
(8,265,o),
(-1,265,cs)
);
},
{
closed = 1;
nodes = (
(-9,314,o),
(-17,322,o),
(-17,332,cs),
(-17,341,o),
(-9,348,o),
(-1,348,cs),
(8,348,o),
(16,341,o),
(16,332,cs),
(16,322,o),
(8,314,o),
(-1,314,cs)
);
},
{
closed = 1;
nodes = (
(25,216,l),
(51,334,l),
(97,216,l)
);
}
);
width = 0;
}
);
note = r;
unicode = 114;
},
{
glyphname = s;
lastChange = "2024-02-06 15:55:43 +0000";
layers = (
{
hints = (
{
horizontal = 1;
place = (56,144);
type = Stem;
},
{
horizontal = 1;
place = (0,27);
type = Stem;
},
{
place = (9,11);
type = Stem;
},
{
place = (3,70);
type = Stem;
},
{
place = (-20,11);
type = Stem;
},
{
place = (-74,69);
type = Stem;
}
);
layerId = m01;
shapes = (
{
closed = 1;
nodes = (
(-53,44,l),
(-48,52,o),
(-39,56,o),
(-29,56,cs),
(-21,56,o),
(-15,53,o),
(-9,49,c),
(-1,109,l),
(8,48,l),
(13,53,o),
(21,56,o),
(28,56,cs),
(39,56,o),
(47,52,o),
(52,45,c),
(65,69,ls),
(77,89,o),
(76,116,o),
(61,133,cs),
(21,182,ls),
(16,188,o),
(19,196,o),
(25,200,c),
(-27,200,l),
(-20,196,o),
(-19,188,o),
(-23,182,cs),
(-63,133,ls),
(-77,116,o),
(-80,89,o),
(-66,69,cs)
);
},
{
closed = 1;
nodes = (
(-113,0,l),
(-33,0,l),
(-20,24,l),
(-20,0,l),
(-9,0,l),
(-9,27,l),
(-44,27,l),
(-44,17,o),
(-55,11,o),
(-65,9,cs),
(-113,7,l)
);
},
{
closed = 1;
nodes = (
(9,0,l),
(20,0,l),
(20,24,l),
(32,0,l),
(113,0,l),
(113,7,l),
(64,9,ls),
(55,11,o),
(43,17,o),
(43,27,c),
(9,27,l)
);
}
);
width = 0;
}
);
note = s;
unicode = 115;
},
{
glyphname = t;
lastChange = "2024-02-06 15:55:55 +0000";
layers = (
{
hints = (
{
horizontal = 1;
place = (490,42);
type = Stem;
},
{
horizontal = 1;
place = (488,44);
type = Stem;
},
{
horizontal = 1;
place = (483,49);
type = Stem;
},
{
horizontal = 1;
place = (473,58);
type = Stem;
},
{
horizontal = 1;
place = (428,18);
type = Stem;
},
{
horizontal = 1;
place = (428,12);
type = Stem;
},
{
horizontal = 1;
place = (424,24);
type = Stem;
},
{
horizontal = 1;
place = (399,48);
type = Stem;
},
{
horizontal = 1;
place = (399,10);
type = Stem;
},
{
place = (54,13);
type = Stem;
},
{
place = (50,17);
type = Stem;
},
{
place = (22,17);
type = Stem;
},
{
place = (0,40);
type = Stem;
},
{
place = (-12,24);
type = Stem;
},
{
place = (-15,29);
type = Stem;
},
{
place = (-39,17);
type = Stem;
},
{
place = (-67,16);
type = Stem;
},
{
place = (-67,12);
type = Stem;
}
);
layerId = m01;
shapes = (
{
closed = 1;
nodes = (
(-68,400,l),
(67,400,l),
(67,465,ls),
(67,488,o),
(56,506,o),
(39,518,c),
(39,520,o),
(37,520,o),
(36,521,cs),
(25,528,o),
(13,533,o),
(-1,533,cs),
(-14,533,o),
(-28,528,o),
(-38,521,cs),
(-46,516,o),
(-53,509,o),
(-58,500,cs),
(-65,490,o),
(-68,478,o),
(-68,465,cs)
);
},
{
closed = 1;
nodes = (
(-44,448,o),
(-52,456,o),
(-52,467,cs),
(-52,476,o),
(-44,484,o),
(-34,484,cs),
(-24,484,o),
(-16,476,o),
(-16,467,cs),
(-16,456,o),
(-24,448,o),
(-34,448,cs)
);
},
{
closed = 1;
nodes = (
(-29,459,o),
(-25,461,o),
(-25,467,cs),
(-25,470,o),
(-29,473,o),
(-33,473,cs),
(-37,473,o),
(-40,470,o),
(-40,467,cs),
(-40,461,o),
(-37,459,o),
(-33,459,cs)
);
},
{
closed = 1;
nodes = (
(5,425,o),
(11,431,o),
(11,437,cs),
(11,444,o),
(5,449,o),
(-1,449,cs),
(-8,449,o),
(-13,444,o),
(-13,437,cs),
(-13,431,o),
(-8,425,o),
(-1,425,cs)
);
},
{
closed = 1;
nodes = (
(-54,484,o),
(-52,488,o),
(-49,493,c),
(-41,489,l),
(-46,488,o),
(-52,484,o),
(-56,478,c)
);
},
{
closed = 1;
nodes = (
(-28,411,o),
(-49,428,o),
(-56,453,c),
(-52,448,o),
(-46,444,o),
(-40,441,c),
(-40,439,ls),
(-40,433,o),
(-36,429,o),
(-32,429,cs),
(-26,429,o),
(-22,433,o),
(-22,439,cs),
(-22,440,o),
(-24,441,o),
(-24,443,c),
(-16,447,o),
(-9,456,o),
(-9,467,cs),
(-9,470,o),
(-5,474,o),
(-1,474,cs),
(3,474,o),
(7,470,o),
(7,467,cs),
(7,456,o),
(13,447,o),
(23,443,c),
(21,441,o),
(21,440,o),
(21,439,cs),
(21,433,o),
(25,429,o),
(29,429,cs),
(35,429,o),
(39,433,o),
(39,439,cs),
(39,440,o),
(37,441,o),
(37,441,c),
(44,444,o),
(49,448,o),
(53,453,c),
(47,428,o),
(25,411,o),
(-1,411,cs)
);
},
{
closed = 1;
nodes = (
(21,448,o),
(13,456,o),
(13,467,cs),
(13,476,o),
(21,484,o),
(32,484,cs),
(41,484,o),
(49,476,o),
(49,467,cs),
(49,456,o),
(41,448,o),
(32,448,cs)
);
},
{
closed = 1;
nodes = (
(35,459,o),
(39,461,o),
(39,467,cs),
(39,470,o),
(35,473,o),
(31,473,cs),
(27,473,o),
(23,470,o),
(23,467,cs),
(23,461,o),
(27,459,o),
(31,459,cs)
);
},
{
closed = 1;
nodes = (
(-14,482,o),
(-20,488,o),
(-26,489,c),
(-12,493,o),
(-1,505,o),
(-1,521,cs),
(-1,506,o),
(9,493,o),
(24,489,c),
(17,488,o),
(12,482,o),
(9,476,c),
(7,480,o),
(3,481,o),
(-1,481,cs),
(-5,481,o),
(-9,480,o),
(-12,476,c)
);
},
{
closed = 1;
nodes = (
(49,484,o),
(45,488,o),
(39,489,c),
(48,493,l),
(49,488,o),
(52,484,o),
(53,478,c)
);
}
);
width = 0;
}
);
note = t;
unicode = 116;
},
{
glyphname = u;
lastChange = "2024-02-06 15:56:08 +0000";
layers = (
{
hints = (
{
horizontal = 1;
place = (382,17);
type = Stem;
},
{
horizontal = 1;
place = (199,199);
type = Stem;
},
{
horizontal = 1;
place = (199,171);
type = Stem;
},
{
place = (28,33);
type = Stem;
},
{
place = (-61,122);
type = Stem;
},
{
place = (-61,34);
type = Stem;
}
);
layerId = m01;
shapes = (
{
closed = 1;
nodes = (
(-122,200,l),
(-62,200,l),
(-81,382,l),
(-62,382,l),
(-62,200,l),
(60,200,l),
(60,382,l),
(79,382,l),
(60,200,l),
(121,200,l),
(101,398,l),
(101,400,l),
(27,400,l),
(27,384,o),
(13,372,o),
(-1,372,cs),
(-16,372,o),
(-28,384,o),
(-28,400,c),
(-102,400,l),
(-102,398,l)
);
}
);
width = 0;
}
);
note = u;
unicode = 117;
},
{
glyphname = v;
lastChange = "2024-02-06 15:56:19 +0000";
layers = (
{
hints = (
{
horizontal = 1;
place = (108,92);
type = Stem;
},
{
horizontal = 1;
place = (40,160);
type = Stem;
},
{
horizontal = 1;
place = (15,11);
type = Stem;
},
{
horizontal = 1;
place = (0,25);
type = Stem;
},
{
place = (48,51);
type = Stem;
},
{
place = (48,23);
type = Stem;
},
{
place = (20,15);
type = Stem;
},
{
place = (-35,15);
type = Stem;
},
{
place = (-70,23);
type = Stem;
},
{
place = (-98,51);
type = Stem;
}
);
layerId = m01;
shapes = (
{
closed = 1;
nodes = (
(-48,0,l),
(-48,5,o),
(-51,11,o),
(-55,16,c),
(-52,15,o),
(-49,15,o),
(-45,15,cs),
(-41,15,o),
(-39,15,o),
(-35,16,c),
(-35,0,l),
(-20,0,l),
(-20,40,l),
(-12,40,l),
(-12,108,l),
(12,108,l),
(12,40,l),
(20,40,l),
(20,0,l),
(35,0,l),
(35,16,l),
(37,15,o),
(41,15,o),
(45,15,cs),
(48,15,o),
(51,15,o),
(53,16,c),
(49,11,o),
(48,5,o),
(48,0,c),
(98,0,l),
(98,13,o),
(86,25,o),
(73,25,cs),
(69,25,o),
(67,24,o),
(64,23,c),
(68,28,o),
(70,33,o),
(70,40,c),
(78,40,l),
(118,120,l),
(78,200,l),
(-78,200,l),
(-118,120,l),
(-78,40,l),
(-70,40,l),
(-70,33,o),
(-69,28,o),
(-65,23,c),
(-68,24,o),
(-70,25,o),
(-73,25,cs),
(-88,25,o),
(-98,13,o),
(-98,0,c)
);
}
);
width = 0;
}
);
note = v;
unicode = 118;
},
{
glyphname = w;
lastChange = "2024-02-06 15:56:34 +0000";
layers = (
{
hints = (
{
horizontal = 1;
place = (488,44);
type = Stem;
},
{
horizontal = 1;
place = (479,53);
type = Stem;
},
{
horizontal = 1;
place = (435,28);
type = Stem;
},
{
horizontal = 1;
place = (435,24);
type = Stem;
},
{
horizontal = 1;
place = (423,20);
type = Stem;
},
{
horizontal = 1;
place = (423,15);
type = Stem;
},
{
horizontal = 1;
place = (407,17);
type = Stem;
},
{
place = (45,20);
type = Stem;
},
{
place = (11,11);
type = Stem;
},
{
place = (1,20);
type = Stem;
},
{
place = (1,16);
type = Stem;
},
{
place = (-21,12);
type = Stem;
},
{
place = (-66,57);
type = Stem;
},
{
place = (-66,25);
type = Stem;
},
{
place = (-66,21);
type = Stem;
}
);
layerId = m01;
shapes = (
{
closed = 1;
nodes = (
(-4,408,o),
(4,408,o),
(9,403,cs),
(17,396,o),
(31,400,o),
(32,411,cs),
(33,419,o),
(39,423,o),
(45,423,cs),
(57,423,o),
(64,435,o),
(57,444,c),
(55,451,o),
(56,459,o),
(61,463,cs),
(69,469,o),
(67,484,o),
(57,487,cs),
(51,489,o),
(47,496,o),
(48,503,cs),
(49,515,o),
(40,523,o),
(29,519,cs),
(23,516,o),
(16,519,o),
(12,525,cs),
(7,534,o),
(-7,534,o),
(-12,525,cs),
(-16,519,o),
(-23,516,o),
(-29,519,cs),
(-40,523,o),
(-50,515,o),
(-48,503,cs),
(-46,496,o),
(-50,489,o),
(-57,487,cs),
(-68,484,o),
(-69,469,o),
(-61,463,cs),
(-56,459,o),
(-54,451,o),
(-58,444,cs),
(-64,435,o),
(-57,423,o),
(-46,423,cs),
(-39,423,o),
(-33,419,o),
(-32,411,cs),
(-31,400,o),
(-17,396,o),
(-9,403,cs)
);
},
{
closed = 1;
nodes = (
(-37,437,o),
(-41,443,o),
(-41,448,cs),
(-41,453,o),
(-37,457,o),
(-32,457,cs),
(-27,457,o),
(-21,453,o),
(-21,448,cs),
(-21,443,o),
(-27,437,o),
(-32,437,cs)
);
},
{
closed = 1;
nodes = (
(-9,424,l),
(-9,435,l),
(11,435,l),
(11,424,l)
);
},
{
closed = 1;
nodes = (
(-28,472,o),
(-36,477,o),
(-45,479,c),
(-44,484,o),
(-39,488,o),
(-32,488,cs),
(-24,488,o),
(-17,481,o),
(-17,473,cs),
(-17,469,o),
(-20,465,o),
(-23,463,c)
);
},
{
closed = 1;
nodes = (
(-9,443,l),
(-9,479,l),
(1,479,l),
(1,460,l),
(7,465,l),
(15,459,l),
(0,443,l)
);
},
{
closed = 1;
nodes = (
(25,437,o),
(21,443,o),
(21,448,cs),
(21,453,o),
(25,457,o),
(31,457,cs),
(36,457,o),
(41,453,o),
(41,448,cs),
(41,443,o),
(36,437,o),
(31,437,cs)
);
},
{
closed = 1;
nodes = (
(19,465,o),
(17,469,o),
(17,473,cs),
(17,481,o),
(24,488,o),
(31,488,cs),
(37,488,o),
(43,484,o),
(45,479,c),
(35,477,o),
(27,472,o),
(21,463,c)
);
}
);
width = 0;
}
);
note = w;
unicode = 119;
},
{
glyphname = x;
lastChange = "2024-02-06 15:56:46 +0000";
layers = (
{
hints = (
{
horizontal = 1;
place = (335,64);
type = Stem;
},
{
horizontal = 1;
place = (293,106);
type = Stem;
},
{
horizontal = 1;
place = (200,63);
type = Stem;
},
{
place = (100,53);
type = Stem;
},
{
place = (36,64);
type = Stem;
},
{
place = (-100,64);
type = Stem;
},
{
place = (-153,53);
type = Stem;
}
);
layerId = m01;
shapes = (
{
closed = 1;
nodes = (
(55,200,o),
(100,244,o),
(100,298,cs),
(100,293,l),
(129,293,o),
(153,316,o),
(153,346,cs),
(153,376,o),
(129,400,o),
(100,400,c),
(100,300,ls),
(100,354,o),
(55,400,o),
(0,400,cs),
(-56,400,o),
(-100,354,o),
(-100,300,cs),
(-100,244,o),
(-56,200,o),
(0,200,cs)
);
},
{
closed = 1;
nodes = (
(-20,263,o),
(-36,280,o),
(-36,300,cs),
(-36,318,o),
(-20,336,o),
(0,336,cs),
(19,336,o),
(36,318,o),
(36,300,cs),
(36,280,o),
(19,263,o),
(0,263,cs)
);
},
{
closed = 1;
nodes = (
(-153,316,o),
(-130,293,o),
(-100,293,c),
(-100,400,l),
(-130,400,o),
(-153,376,o),
(-153,346,cs)
);
}
);
width = 0;
}
);
note = x;
unicode = 120;
},
{
glyphname = y;
lastChange = "2024-02-06 15:56:54 +0000";
layers = (
{
hints = (
{
horizontal = 1;
place = (137,61);
type = Stem;
},
{
horizontal = 1;
place = (84,61);
type = Stem;
},
{
horizontal = 1;
place = (31,61);
type = Stem;
},
{
horizontal = 1;
place = (0,92);
type = Stem;
},
{
horizontal = 1;
place = (0,31);
type = Stem;
},
{
place = (31,31);
type = Stem;
},
{
place = (-31,61);
type = Stem;
},
{
place = (-31,31);
type = Stem;
},
{
place = (-63,31);
type = Stem;
},
{
place = (-93,61);
type = Stem;
}
);
layerId = m01;
shapes = (
{
closed = 1;
nodes = (
(-68,31,l),
(-118,31,l),
(-118,0,l),
(-31,0,l),
(-31,31,l),
(-56,31,l),
(-48,32,o),
(-40,37,o),
(-36,45,cs),
(-27,60,o),
(-32,78,o),
(-47,88,cs),
(-61,96,o),
(-80,90,o),
(-89,76,cs),
(-97,61,o),
(-92,43,o),
(-77,35,cs)
);
},
{
closed = 1;
nodes = (
(31,0,l),
(118,0,l),
(118,31,l),
(68,31,l),
(77,35,ls),
(92,43,o),
(97,61,o),
(88,76,cs),
(80,90,o),
(61,96,o),
(47,88,c),
(61,96,o),
(65,116,o),
(57,130,cs),
(49,145,o),
(31,149,o),
(16,141,cs),
(20,144,o),
(24,148,o),
(27,153,cs),
(35,168,o),
(29,186,o),
(15,194,cs),
(0,203,o),
(-19,198,o),
(-27,184,cs),
(-36,169,o),
(-31,150,o),
(-16,141,cs),
(-7,136,o),
(5,136,o),
(15,141,c),
(5,136,o),
(0,125,o),
(0,114,cs),
(0,109,o),
(1,104,o),
(4,98,cs),
(12,84,o),
(31,78,o),
(45,88,c),
(31,78,o),
(27,60,o),
(35,45,cs),
(39,37,o),
(47,32,o),
(55,31,c),
(31,31,l)
);
},
{
closed = 1;
nodes = (
(-66,116,o),
(-61,96,o),
(-47,88,cs),
(-32,78,o),
(-13,84,o),
(-4,98,cs),
(-1,104,o),
(0,109,o),
(0,114,cs),
(0,125,o),
(-7,136,o),
(-16,141,cs),
(-31,150,o),
(-49,145,o),
(-59,130,cs)
);
}
);
width = 0;
}
);
note = y;
unicode = 121;
},
{
glyphname = z;
lastChange = "2024-02-06 15:57:04 +0000";
layers = (
{
hints = (
{
horizontal = 1;
place = (436,16);
type = Stem;
},
{
horizontal = 1;
place = (399,10);
type = Stem;
},
{
place = (34,40);
type = Stem;
},
{
place = (34,9);
type = Stem;
},
{
place = (-4,14);
type = Stem;
},
{
place = (-4,10);
type = Stem;
},
{
place = (-8,14);
type = Stem;
},
{
place = (-43,9);
type = Stem;
},
{
place = (-73,40);
type = Stem;
}
);
layerId = m01;
shapes = (
{
closed = 1;
nodes = (
(40,400,o),
(73,411,o),
(73,425,cs),
(73,433,o),
(61,441,o),
(43,445,c),
(0,533,l),
(-44,445,l),
(-62,441,o),
(-74,433,o),
(-74,425,cs),
(-74,411,o),
(-41,400,o),
(0,400,cs)
);
},
{
closed = 1;
nodes = (
(-18,411,o),
(-34,416,o),
(-34,424,cs),
(-34,432,o),
(-18,437,o),
(0,437,cs),
(19,437,o),
(33,432,o),
(33,424,cs),
(33,416,o),
(19,411,o),
(0,411,cs)
);
},
{
closed = 1;
nodes = (
(-6,453,o),
(-12,459,o),
(-12,467,cs),
(-12,469,l),
(-5,469,l),
(-5,467,ls),
(-5,463,o),
(-4,460,o),
(0,460,cs),
(3,460,o),
(5,463,o),
(5,467,cs),
(5,469,l),
(12,469,l),
(12,467,ls),
(12,459,o),
(7,453,o),
(0,453,cs)
);
},
{
closed = 1;
nodes = (
(-18,472,o),
(-21,474,o),
(-21,477,cs),
(-21,481,o),
(-18,484,o),
(-16,484,cs),
(-12,484,o),
(-9,481,o),
(-9,477,cs),
(-9,474,o),
(-12,472,o),
(-16,472,cs)
);
},
{
closed = 1;
nodes = (
(12,472,o),
(9,474,o),
(9,477,cs),
(9,481,o),
(12,484,o),
(15,484,cs),
(19,484,o),
(21,481,o),
(21,477,cs),
(21,474,o),
(19,472,o),
(15,472,cs)
);
}
);
width = 0;
}
);
note = z;
unicode = 122;
},
{
glyphname = zero;
lastChange = "2024-02-06 15:57:13 +0000";
layers = (
{
hints = (
{
horizontal = 1;
place = (314,49);
type = Stem;
},
{
horizontal = 1;
place = (295,104);
type = Stem;
},
{
horizontal = 1;
place = (200,200);
type = Stem;
},
{
place = (92,27);
type = Stem;
},
{
place = (52,27);
type = Stem;
},
{
place = (9,27);
type = Stem;
},
{
place = (-33,27);
type = Stem;
},
{
place = (-76,27);
type = Stem;
},
{
place = (-118,27);
type = Stem;
}
);
layerId = m01;
shapes = (
{
closed = 1;
nodes = (
(-118,200,l),
(-104,200,o),
(-92,212,o),
(-92,227,cs),
(-92,288,ls),
(-92,292,o),
(-88,296,o),
(-84,296,cs),
(-80,296,o),
(-76,292,o),
(-76,288,cs),
(-76,200,l),
(-61,200,o),
(-49,212,o),
(-49,227,cs),
(-49,288,ls),
(-49,292,o),
(-45,296,o),
(-41,296,cs),
(-37,296,o),
(-33,292,o),
(-33,288,cs),
(-33,200,l),
(-19,200,o),
(-7,212,o),
(-7,227,cs),
(-7,288,ls),
(-7,292,o),
(-3,296,o),
(1,296,cs),
(5,296,o),
(9,292,o),
(9,288,cs),
(9,200,l),
(24,200,o),
(36,212,o),
(36,227,cs),
(36,288,ls),
(36,292,o),
(40,296,o),
(44,296,cs),
(49,296,o),
(52,292,o),
(52,288,cs),
(52,200,l),
(67,200,o),
(78,212,o),
(78,227,cs),
(78,309,ls),
(78,312,o),
(81,314,o),
(85,314,cs),
(89,314,o),
(92,312,o),
(92,309,cs),
(92,284,ls),
(92,269,o),
(104,257,o),
(118,257,c),
(118,337,ls),
(118,352,o),
(106,364,o),
(92,364,cs),
(78,364,l),
(78,370,ls),
(78,386,o),
(67,400,o),
(49,400,cs),
(-74,400,ls),
(-100,400,o),
(-118,380,o),
(-118,356,cs)
);
}
);
width = 0;
}
);
note = zero;
unicode = 48;
},
{
glyphname = one;
lastChange = "2024-02-06 15:57:20 +0000";
layers = (
{
hints = (
{
horizontal = 1;
place = (0,200);
type = Stem;
},
{
place = (57,20);
type = Stem;
},
{
place = (-77,19);
type = Stem;
}
);
layerId = m01;
shapes = (
{
closed = 1;
nodes = (
(-77,0,l),
(-59,28,l),
(-39,0,l),
(-20,28,l),
(0,0,l),
(19,28,l),
(39,0,l),
(57,28,l),
(77,0,l),
(77,122,ls),
(77,165,o),
(43,200,o),
(0,200,cs),
(-43,200,o),
(-77,165,o),
(-77,122,cs)
);
}
);
width = 0;
}
);
note = one;
unicode = 49;
},
{
glyphname = two;
lastChange = "2024-02-06 15:57:33 +0000";
layers = (
{
hints = (
{
horizontal = 1;
place = (493,14);
type = Stem;
},
{
horizontal = 1;
place = (480,18);
type = Stem;
},
{
horizontal = 1;
place = (427,58);
type = Stem;
},
{
place = (29,29);
type = Stem;
},
{
place = (0,22);
type = Stem;
},
{
place = (-12,24);
type = Stem;
},
{
place = (-44,32);
type = Stem;
},
{
place = (-57,20);
type = Stem;
}
);
layerId = m01;
shapes = (
{
closed = 1;
nodes = (
(-5,408,o),
(3,408,o),
(9,404,cs),
(24,394,o),
(43,406,o),
(43,426,cs),
(43,428,l),
(20,428,l),
(8,442,o),
(8,465,o),
(20,480,c),
(57,480,l),
(57,482,ls),
(57,501,o),
(33,514,o),
(13,504,cs),
(0,497,o),
(0,497,o),
(-14,504,c),
(-16,504,l),
(-34,514,o),
(-58,501,o),
(-58,482,cs),
(-58,480,l),
(-22,480,l),
(-10,465,o),
(-10,442,o),
(-22,428,c),
(-45,428,l),
(-45,426,ls),
(-45,406,o),
(-26,394,o),
(-12,404,cs)
);
},
{
closed = 1;
nodes = (
(-8,414,o),
(-13,420,o),
(-13,426,c),
(12,426,l),
(12,420,o),
(5,414,o),
(-1,414,cs)
);
},
{
closed = 1;
nodes = (
(-34,486,o),
(-36,486,o),
(-36,488,c),
(-37,489,o),
(-38,490,o),
(-38,492,cs),
(-38,496,l),
(-37,498,o),
(-37,498,o),
(-36,500,cs),
(-34,501,o),
(-32,501,o),
(-30,501,c),
(-30,493,l),
(-22,493,l),
(-22,492,o),
(-24,490,o),
(-24,489,c),
(-25,488,o),
(-26,486,o),
(-28,486,c),
(-29,485,o),
(-30,485,o),
(-32,485,c)
);
},
{
closed = 1;
nodes = (
(25,486,o),
(24,486,o),
(23,488,cs),
(21,489,o),
(21,490,o),
(21,492,c),
(20,493,o),
(20,494,o),
(21,496,c),
(21,498,o),
(23,498,o),
(24,500,cs),
(25,501,o),
(27,501,o),
(28,501,c),
(28,493,l),
(36,493,l),
(36,492,o),
(36,490,o),
(35,489,c),
(35,488,o),
(33,486,o),
(32,486,c),
(31,485,o),
(28,485,o),
(27,485,c)
);
},
{
closed = 1;
nodes = (
(5,506,o),
(12,508,o),
(17,513,cs),
(23,518,o),
(24,525,o),
(21,531,c),
(15,535,o),
(7,534,o),
(1,529,cs),
(-4,523,o),
(-4,516,o),
(-1,509,c)
);
}
);
width = 0;
}
);
note = two;
unicode = 50;
},
{
glyphname = three;
lastChange = "2024-02-06 15:57:43 +0000";
layers = (
{
hints = (
{
horizontal = 1;
place = (327,21);
type = Stem;
},
{
horizontal = 1;
place = (270,32);
type = Stem;
},
{
horizontal = 1;
place = (200,43);
type = Stem;
},
{
place = (-13,28);
type = Stem;
}
);
layerId = m01;
shapes = (
{
closed = 1;
nodes = (
(-128,200,l),
(128,200,l),
(128,243,l),
(90,243,o),
(68,255,o),
(53,270,c),
(90,270,l),
(90,302,l),
(60,302,o),
(44,313,o),
(33,328,c),
(64,328,l),
(64,349,l),
(21,349,o),
(17,378,o),
(15,400,c),
(-13,400,l),
(-16,378,o),
(-21,349,o),
(-64,349,c),
(-64,328,l),
(-33,328,l),
(-43,313,o),
(-60,302,o),
(-90,302,c),
(-90,270,l),
(-53,270,l),
(-68,255,o),
(-90,243,o),
(-128,243,c)
);
}
);
width = 0;
}
);
note = three;
unicode = 51;
},
{
glyphname = four;
lastChange = "2024-02-06 15:57:51 +0000";
layers = (
{
hints = (
{
horizontal = 1;
place = (175,24);
type = Stem;
},
{
horizontal = 1;
place = (138,22);
type = Stem;
},
{
horizontal = 1;
place = (77,22);
type = Stem;
},
{
horizontal = 1;
place = (0,28);
type = Stem;
},
{
place = (18,13);
type = Stem;
},
{
place = (-32,64);
type = Stem;
},
{
place = (-32,13);
type = Stem;
}
);
layerId = m01;
shapes = (
{
closed = 1;
nodes = (
(-94,0,l),
(93,0,l),
(93,28,l),
(31,28,l),
(31,77,l),
(69,77,l),
(69,100,l),
(31,100,l),
(31,200,l),
(-33,200,l),
(-33,161,l),
(-76,161,l),
(-76,138,l),
(-33,138,l),
(-33,28,l),
(-94,28,l)
);
},
{
closed = 1;
nodes = (
(-12,138,o),
(-20,146,o),
(-20,157,cs),
(-20,166,o),
(-12,176,o),
(-1,176,cs),
(9,176,o),
(17,166,o),
(17,157,cs),
(17,146,o),
(9,138,o),
(-1,138,cs)
);
}
);
width = 0;
}
);
note = four;
unicode = 52;
},
{
glyphname = five;
lastChange = "2024-02-06 15:58:03 +0000";
layers = (
{
hints = (
{
horizontal = 1;
place = (484,48);
type = Stem;
},
{
horizontal = 1;
place = (463,13);
type = Stem;
},
{
horizontal = 1;
place = (440,13);
type = Stem;
},
{
horizontal = 1;
place = (399,21);
type = Stem;
},
{
place = (68,17);
type = Stem;
},
{
place = (66,18);
type = Stem;
},
{
place = (45,13);
type = Stem;
},
{
place = (6,18);
type = Stem;
},
{
place = (6,13);
type = Stem;
},
{
place = (-23,17);
type = Stem;
},
{
place = (-24,18);
type = Stem;
},
{
place = (-44,13);
type = Stem;
},
{
place = (-57,26);
type = Stem;
},
{
place = (-84,18);
type = Stem;
},
{
place = (-84,13);
type = Stem;
}
);
layerId = m01;
shapes = (
{
closed = 1;
nodes = (
(-24,400,o),
(-6,417,o),
(-6,439,cs),
(-6,485,l),
(67,485,l),
(67,470,l),
(60,476,o),
(52,477,o),
(44,477,cs),
(23,477,o),
(5,460,o),
(5,439,cs),
(5,417,o),
(23,400,o),
(44,400,cs),
(65,400,o),
(84,417,o),
(84,439,cs),
(84,533,l),
(-24,533,l),
(-24,472,l),
(-30,476,o),
(-38,477,o),
(-45,477,cs),
(-68,477,o),
(-85,460,o),
(-85,439,cs),
(-85,417,o),
(-68,400,o),
(-45,400,cs)
);
},
{
closed = 1;
nodes = (
(-62,425,o),
(-66,432,o),
(-66,439,cs),
(-66,445,o),
(-64,451,o),
(-60,455,c),
(-72,455,l),
(-72,464,l),
(-45,464,l),
(-45,460,l),
(-34,460,o),
(-25,451,o),
(-25,439,cs),
(-25,432,o),
(-29,425,o),
(-34,421,cs),
(-33,423,o),
(-32,425,o),
(-32,428,cs),
(-32,436,o),
(-38,441,o),
(-45,441,cs),
(-49,441,l),
(-48,440,o),
(-45,437,o),
(-45,435,cs),
(-45,432,o),
(-49,428,o),
(-52,428,cs),
(-54,428,o),
(-57,431,o),
(-58,432,c),
(-58,428,ls),
(-58,425,o),
(-58,423,o),
(-57,421,cs)
);
},
{
closed = 1;
nodes = (
(28,425,o),
(24,432,o),
(24,439,cs),
(24,445,o),
(27,451,o),
(31,455,c),
(19,455,l),
(19,464,l),
(44,464,l),
(44,460,l),
(56,460,o),
(65,451,o),
(65,439,cs),
(65,432,o),
(61,425,o),
(56,421,cs),
(57,423,o),
(57,425,o),
(57,428,cs),
(57,436,o),
(52,441,o),
(44,441,cs),
(40,441,l),
(43,440,o),
(44,437,o),
(44,435,cs),
(44,432,o),
(41,428,o),
(37,428,cs),
(35,428,o),
(33,431,o),
(32,432,c),
(32,431,o),
(31,429,o),
(31,428,cs),
(31,425,o),
(32,423,o),
(33,421,cs)
);
}
);
width = 0;
}
);
note = five;
unicode = 53;
},
{
glyphname = six;
lastChange = "2024-02-06 15:58:15 +0000";
layers = (
{
hints = (
{
horizontal = 1;
place = (351,48);
type = Stem;
},
{
horizontal = 1;
place = (351,19);
type = Stem;
},
{
horizontal = 1;
place = (313,57);
type = Stem;
},
{
horizontal = 1;
place = (261,21);
type = Stem;
},
{
horizontal = 1;
place = (200,170);
type = Stem;
},
{
horizontal = 1;
place = (200,121);
type = Stem;
},
{
place = (110,15);
type = Stem;
},
{
place = (86,39);
type = Stem;
},
{
place = (63,17);
type = Stem;
},
{
place = (19,37);
type = Stem;
},
{
place = (19,13);
type = Stem;
},
{
place = (-17,36);
type = Stem;
},
{
place = (-33,16);
type = Stem;
},
{
place = (-57,40);
type = Stem;
},
{
place = (-81,17);
type = Stem;
},
{
place = (-125,37);
type = Stem;
},
{
place = (-125,15);
type = Stem;
}
);
layerId = m01;
shapes = (
{
closed = 1;
nodes = (
(-101,200,l),
(102,200,l),
(19,252,l),
(19,400,l),
(-17,400,l),
(-17,370,l),
(-125,370,l),
(-125,332,o),
(-125,261,o),
(-72,261,cs),
(-19,261,o),
(-17,330,o),
(-17,369,cs),
(-17,252,l)
);
},
{
closed = 1;
nodes = (
(-80,282,o),
(-88,290,o),
(-88,298,cs),
(-88,313,l),
(-57,313,l),
(-57,298,ls),
(-57,290,o),
(-64,282,o),
(-72,282,cs)
);
},
{
closed = 1;
nodes = (
(-104,321,o),
(-110,328,o),
(-110,337,cs),
(-110,352,l),
(-81,352,l),
(-81,337,ls),
(-81,328,o),
(-88,321,o),
(-96,321,cs)
);
},
{
closed = 1;
nodes = (
(-57,321,o),
(-64,328,o),
(-64,337,cs),
(-64,352,l),
(-33,352,l),
(-33,337,ls),
(-33,328,o),
(-40,321,o),
(-49,321,cs)
);
},
{
closed = 1;
nodes = (
(63,282,o),
(56,290,o),
(56,298,cs),
(56,313,l),
(86,313,l),
(86,298,ls),
(86,290,o),
(80,282,o),
(72,282,cs)
);
},
{
closed = 1;
nodes = (
(40,321,o),
(32,328,o),
(32,337,cs),
(32,352,l),
(63,352,l),
(63,337,ls),
(63,328,o),
(56,321,o),
(48,321,cs)
);
},
{
closed = 1;
nodes = (
(125,261,o),
(125,332,o),
(125,370,c),
(19,370,l),
(19,332,o),
(19,261,o),
(72,261,cs)
);
},
{
closed = 1;
nodes = (
(86,321,o),
(80,328,o),
(80,337,cs),
(80,352,l),
(110,352,l),
(110,337,ls),
(110,328,o),
(104,321,o),
(94,321,cs)
);
}
);
width = 0;
}
);
note = six;
unicode = 54;
},
{
glyphname = seven;
lastChange = "2024-02-06 15:58:22 +0000";
layers = (
{
hints = (
{
horizontal = 1;
place = (98,36);
type = Stem;
},
{
horizontal = 1;
place = (0,35);
type = Stem;
},
{
place = (-19,39);
type = Stem;
},
{
place = (-20,145);
type = Stem;
},
{
place = (-20,41);
type = Stem;
}
);
layerId = m01;
shapes = (
{
closed = 1;
nodes = (
(-125,0,l),
(-70,0,o),
(-23,29,o),
(0,72,c),
(24,29,o),
(72,0,o),
(125,0,c),
(125,35,l),
(73,35,o),
(29,72,o),
(21,121,c),
(39,106,o),
(61,98,o),
(86,98,cs),
(125,98,l),
(125,134,l),
(86,134,ls),
(49,134,o),
(20,164,o),
(20,200,c),
(-19,200,l),
(-19,164,o),
(-49,134,o),
(-85,134,cs),
(-125,134,l),
(-125,98,l),
(-85,98,ls),
(-60,98,o),
(-37,106,o),
(-20,121,c),
(-28,72,o),
(-72,35,o),
(-125,35,c)
);
}
);
width = 0;
}
);
note = seven;
unicode = 55;
},
{
glyphname = eight;
lastChange = "2024-02-06 15:58:31 +0000";
layers = (
{
hints = (
{
horizontal = 1;
place = (473,56);
type = Stem;
},
{
horizontal = 1;
place = (449,13);
type = Stem;
},
{
horizontal = 1;
place = (431,32);
type = Stem;
},
{
horizontal = 1;
place = (399,24);
type = Stem;
},
{
place = (32,20);
type = Stem;
},
{
place = (30,22);
type = Stem;
},
{
place = (16,37);
type = Stem;
},
{
place = (16,22);
type = Stem;
},
{
place = (-11,30);
type = Stem;
},
{
place = (-29,26);
type = Stem;
},
{
place = (-53,32);
type = Stem;
},
{
place = (-53,14);
type = Stem;
}
);
layerId = m01;
shapes = (
{
closed = 1;
nodes = (
(-65,474,l),
(64,474,l),
(-1,533,l)
);
},
{
closed = 1;
nodes = (
(-40,424,l),
(-40,437,ls),
(-40,444,o),
(-36,449,o),
(-30,451,c),
(-30,424,l)
);
},
{
closed = 1;
nodes = (
(-22,424,l),
(-22,451,l),
(-16,449,o),
(-12,444,o),
(-12,437,cs),
(-12,424,l)
);
},
{
closed = 1;
nodes = (
(-54,400,l),
(-4,400,l),
(-4,432,l),
(15,432,l),
(15,400,l),
(52,400,l),
(52,464,l),
(-54,464,l)
);
},
{
closed = 1;
nodes = (
(19,424,l),
(19,437,ls),
(19,444,o),
(24,449,o),
(29,451,c),
(29,424,l)
);
},
{
closed = 1;
nodes = (
(37,424,l),
(37,451,l),
(43,449,o),
(48,444,o),
(48,437,cs),
(48,424,l)
);
},
{
closed = 1;
nodes = (
(51,502,l),
(51,530,l),
(31,530,l),
(31,520,l)
);
}
);
width = 0;
}
);
note = eight;
unicode = 56;
},
{
glyphname = nine;
lastChange = "2024-02-06 15:58:39 +0000";
layers = (
{
hints = (
{
horizontal = 1;
place = (364,35);
type = Stem;
},
{
horizontal = 1;
place = (200,82);
type = Stem;
},
{
horizontal = 1;
place = (200,57);
type = Stem;
},
{
place = (41,33);
type = Stem;
},
{
place = (-76,35);
type = Stem;
}
);
layerId = m01;
shapes = (
{
closed = 1;
nodes = (
(-105,200,l),
(105,200,l),
(33,257,l),
(59,269,o),
(74,294,o),
(74,324,cs),
(74,365,o),
(41,400,o),
(0,400,cs),
(-43,400,o),
(-76,365,o),
(-76,324,cs),
(-76,294,o),
(-59,269,o),
(-35,257,c)
);
},
{
closed = 1;
nodes = (
(-23,282,o),
(-41,301,o),
(-41,324,cs),
(-41,346,o),
(-23,365,o),
(0,365,cs),
(23,365,o),
(41,346,o),
(41,324,cs),
(41,301,o),
(23,282,o),
(0,282,cs)
);
}
);
width = 0;
}
);
note = nine;
unicode = 57;
},
{
glyphname = period;
lastChange = "2024-02-06 15:58:49 +0000";
layers = (
{
hints = (
{
horizontal = 1;
place = (145,54);
type = Stem;
},
{
horizontal = 1;
place = (116,18);
type = Stem;
},
{
horizontal = 1;
place = (30,74);
type = Stem;
},
{
horizontal = 1;
place = (0,13);
type = Stem;
},
{
place = (53,34);
type = Stem;
},
{
place = (53,18);
type = Stem;
},
{
place = (13,74);
type = Stem;
},
{
place = (13,29);
type = Stem;
},
{
place = (-41,29);
type = Stem;
},
{
place = (-71,20);
type = Stem;
},
{
place = (-87,74);
type = Stem;
},
{
place = (-87,36);
type = Stem;
}
);
layerId = m01;
shapes = (
{
closed = 1;
nodes = (
(-88,0,l),
(-26,0,l),
(-26,31,l),
(-13,31,l),
(-13,106,l),
(-1,118,l),
(12,106,l),
(12,31,l),
(24,31,l),
(24,0,l),
(87,0,l),
(87,4,ls),
(87,9,o),
(83,13,o),
(77,13,cs),
(76,13,ls),
(57,13,o),
(52,25,o),
(52,31,c),
(87,31,l),
(87,137,l),
(24,200,l),
(-25,200,l),
(-88,137,l),
(-88,31,l),
(-53,31,l),
(-54,25,o),
(-60,13,o),
(-78,13,cs),
(-80,13,ls),
(-84,13,o),
(-88,9,o),
(-88,4,cs)
);
},
{
closed = 1;
nodes = (
(-73,105,o),
(-82,113,o),
(-82,125,cs),
(-82,136,o),
(-73,145,o),
(-62,145,cs),
(-50,145,o),
(-42,136,o),
(-42,125,cs),
(-42,113,o),
(-50,105,o),
(-62,105,cs)
);
},
{
closed = 1;
nodes = (
(-72,116,l),
(-52,116,l),
(-52,134,l),
(-72,134,l)
);
},
{
closed = 1;
nodes = (
(51,105,o),
(41,113,o),
(41,125,cs),
(41,136,o),
(51,145,o),
(61,145,cs),
(72,145,o),
(81,136,o),
(81,125,cs),
(81,113,o),
(72,105,o),
(61,105,cs)
);
},
{
closed = 1;
nodes = (
(52,116,l),
(71,116,l),
(71,134,l),
(52,134,l)
);
}
);
width = 0;
}
);
note = period;
unicode = 46;
},
{
glyphname = comma;
lastChange = "2024-02-06 15:41:49 +0000";
layers = (
{
hints = (
{
horizontal = 1;
place = (225,-18);
type = Stem;
},
{
horizontal = 1;
place = (127,1);
type = Stem;
},
{
horizontal = 1;
place = (9,18);
type = Stem;
},
{
place = (139,-6);
type = Stem;
},
{
place = (129,14);
type = Stem;
}
);
layerId = m01;
shapes = (
{
closed = 1;
nodes = (
(0,63,l),
(182,63,l),
(182,0,l),
(250,0,l),
(250,63,l),
(430,63,l),
(430,134,l),
(368,134,o),
(329,154,o),
(305,181,c),
(368,181,l),
(368,235,l),
(316,235,o),
(289,253,o),
(271,278,c),
(323,278,l),
(323,314,l),
(251,314,o),
(244,363,o),
(240,399,c),
(192,399,l),
(188,363,o),
(179,314,o),
(107,314,c),
(107,278,l),
(159,278,l),
(143,253,o),
(114,235,o),
(62,235,c),
(62,181,l),
(125,181,l),
(101,154,o),
(62,134,o),
(0,134,c)
);
}
);
width = 430;
}
);
note = comma;
unicode = 44;
},
{
glyphname = hyphen;
lastChange = "2024-02-06 15:59:11 +0000";
layers = (
{
layerId = m01;
shapes = (
{
closed = 1;
nodes = (
(181,134,o),
(205,134,o),
(220,118,c),
(243,99,o),
(282,111,o),
(286,142,cs),
(290,165,o),
(305,176,o),
(324,176,cs),
(359,176,o),
(379,211,o),
(359,238,c),
(351,257,o),
(355,281,o),
(371,292,c),
(394,312,o),
(386,354,o),
(359,362,c),
(340,370,o),
(328,389,o),
(332,408,c),
(336,443,o),
(309,466,o),
(278,455,cs),
(259,447,o),
(239,455,o),
(228,474,cs),
(212,501,o),
(174,501,o),
(158,474,cs),
(147,455,o),
(127,447,o),
(108,455,cs),
(77,466,o),
(46,443,o),
(54,408,cs),
(58,389,o),
(46,370,o),
(27,362,c),
(-4,354,o),
(-8,312,o),
(15,292,c),
(31,281,o),
(35,257,o),
(23,238,cs),
(7,211,o),
(27,176,o),
(58,176,cs),
(81,176,o),
(96,165,o),
(100,142,cs),
(104,111,o),
(143,99,o),
(166,118,c)
);
},
{
closed = 1;
nodes = (
(85,219,o),
(73,234,o),
(73,250,cs),
(73,265,o),
(85,277,o),
(100,277,cs),
(116,277,o),
(131,265,o),
(131,250,cs),
(131,234,o),
(116,219,o),
(100,219,cs)
);
},
{
closed = 1;
nodes = (
(166,180,l),
(166,211,l),
(224,211,l),
(224,180,l)
);
},
{
closed = 1;
nodes = (
(112,319,o),
(89,335,o),
(62,339,c),
(65,354,o),
(81,366,o),
(100,366,cs),
(123,366,o),
(143,346,o),
(143,323,cs),
(143,312,o),
(135,300,o),
(127,292,c)
);
},
{
closed = 1;
nodes = (
(166,234,l),
(166,339,l),
(197,339,l),
(197,285,l),
(212,300,l),
(236,281,l),
(193,234,l)
);
},
{
closed = 1;
nodes = (
(266,219,o),
(255,234,o),
(255,250,cs),
(255,265,o),
(266,277,o),
(282,277,cs),
(297,277,o),
(313,265,o),
(313,250,cs),
(313,234,o),
(297,219,o),
(282,219,cs)
);
},
{
closed = 1;
nodes = (
(247,300,o),
(243,312,o),
(243,323,cs),
(243,346,o),
(263,366,o),
(282,366,cs),
(301,366,o),
(317,354,o),
(324,339,c),
(294,335,o),
(270,319,o),
(255,292,c)
);
}
